<?xml version="1.0" encoding="UTF-8" standalone="no"?>
<svg
   xmlns="http://www.w3.org/2000/svg"
   version="1.1"
   viewBox="0 0 1135.156 1002.9227"
   data-name="Layer 1"
   id="b20fa69d-126b-479c-8485-104b5d95d423">
  <defs
     id="defs6066">
    <linearGradient
       osb:paint="solid"
       id="linearGradient8029">
      <stop
         id="stop8027"
         offset="0"
         style="stop-color:#f86d70;stop-opacity:1;" />
    </linearGradient>
    <linearGradient
       osb:paint="solid"
       id="linearGradient8023">
      <stop
         id="stop8021"
         offset="0"
         style="stop-color:#8cc487;stop-opacity:1;" />
    </linearGradient>
    <linearGradient
       osb:paint="solid"
       id="linearGradient8017">
      <stop
         id="stop8015"
         offset="0"
         style="stop-color:#78bbbb;stop-opacity:1;" />
    </linearGradient>
    <linearGradient
       osb:paint="solid"
       id="linearGradient7972">
      <stop
         id="stop7970"
         offset="0"
         style="stop-color:#ffd071;stop-opacity:1;" />
    </linearGradient>
    <filter
       height="1.0026087"
       y="-0.0013043398"
       width="1.0106846"
       x="-0.0053423196"
       id="filter8033"
       style="color-interpolation-filters:sRGB">
      <feGaussianBlur
         id="feGaussianBlur8035"
         stdDeviation="0.042092131" />
    </filter>
  </defs>
  <title
     id="title5925">having fun</title>
  <path
     style="fill:#008080;fill-opacity:1"
     id="path5927"
     opacity="0.1"
     fill="#6c63ff"
     d="m 1128.04,781.11188 c -11.39,27.39 -35.22,52.13 -60.8,75.56 q -33.73,30.9 -72.16,59.72 -10.65,8 -21.64,15.8 l -5.09,3.59 q -6.77,4.79 -13.77,9.49 l -0.56,0.38 q -6.79,4.62 -13.7,9.15 c -15.07,9.9 -31,19.73 -48.61,27.87 -6,2.78 -12.19,5.37 -18.6,7.69 q -5.2,1.89 -10.62,3.54 c -5.92,1.8 -12,3.37 -18.35,4.66 -1.06,0.22 -2.13,0.43 -3.2,0.63 -6.5,1.22002 -13.08,2.11002 -19.73,2.72002 -24.37,2.23 -49.54,0.6 -73.95,-3.22002 -12.2,-1.91 -24.21,-4.37 -35.83,-7.17 -1.43,-0.34 -2.85,-0.69 -4.28,-1 -39.57,-9.9 -76.72,-23.34 -116.57,-32.79 q -20.6,-4.89 -42,-8.3 -10.44,-1.66 -21,-3 c -16.57,-2.06 -33.35,-3.44 -50.2,-4.14 -22.72,-1 -46.18,-0.57 -67.8,3.4 q -4.32,0.79 -8.53,1.78 -5.34,1.25 -10.48,2.85 a 186.58,186.58 0 0 0 -26.89,11.07 c -1.71,0.84 -3.4,1.69 -5.09,2.55 v 0 c -5.3,2.7 -10.53,5.46 -15.84,8.14 a 199.93,199.93 0 0 1 -29.74,12.62 157.47,157.47 0 0 1 -17.08,4.36 c -15.27,3.06 -31.52,4.27 -47.84,4.35 -7.87,0 -15.75,-0.17 -23.54,-0.58 h -0.24 c -2.66,-0.14 -5.33,-0.3 -8,-0.5 -12.16,-0.83 -24.28,-2.11 -36.22,-3.86 -40.91,-6 -79.71,-17.34 -110.92,-34.64 -42.39,-23.48 -69.31,-58.49 -65.27,-93.47 2.9,-25.2 20.91,-48.6 38,-71.51 31.79,-42.66 61.57,-86.29 77.24,-132.28 12.71,-37.33 16.5,-76.8 45.75,-110.35 9.37,-10.74 21.35,-20.54 35.3,-29.13 a 225.4,225.4 0 0 1 32.68,-16.52 282.47,282.47 0 0 1 39.39,-12.85 313.5,313.5 0 0 1 35.32,-6.64 c 6.46,-0.84 13,-1.49 19.58,-1.93 q 7.6,-0.53 15.27,-0.67 h 0.79 q 4.69,-0.09 9.38,0 a 437.06,437.06 0 0 1 68,6.39 c 14.06,2.35 28,5.23 41.65,8.4 q 12.22,2.83 24.22,5.93 c 2.44,0.63 4.88,1.27 7.29,1.92 56.92,15.25 107,36.31 161.84,53.59 0.28,0.09 0.55,0.18 0.83,0.25 v 0 a 337.86,337.86 0 0 0 34.24,8.6 c 8.49,1.7 17.17,3.17 26,4.46 13.52,2 27.33,3.58 41.24,4.94 l 3.07,0.3 c 20.41,2 41,3.49 61,5.23 7.1,0.62 14.14,1.26 21.08,2 q 6.6,0.66 13.08,1.4 c 3.1,0.36 6.21,0.72 9.32,1.1 3.11,0.38 6.4,0.78 9.6,1.19 2.08,0.26 4.15,0.53 6.23,0.82 12.6,1.67 25.17,3.54 37.6,5.68 7.56,1.3 15.08,2.7 22.51,4.21 q 8.07,1.64 16,3.46 5.88,1.33 11.66,2.8 c 31.31,7.87 60.61,18.19 85.86,32.12 65.57,36.09 94.91,95.46 73.12,147.84 z" />
  <circle
     style="fill:#008080"
     id="circle5929"
     opacity="0.1"
     fill="#6c63ff"
     r="21.629999"
     cy="358.81189"
     cx="248.99001" />
  <circle
     style="fill:#008080"
     id="circle5931"
     opacity="0.1"
     fill="#6c63ff"
     r="21.629999"
     cy="311.67188"
     cx="691.09998" />
  <circle
     style="fill:#008080"
     id="circle5933"
     opacity="0.1"
     fill="#6c63ff"
     r="21.629999"
     cy="360.11188"
     cx="953.25" />
  <circle
     style="fill:#008080"
     id="circle5935"
     opacity="0.1"
     fill="#6c63ff"
     r="36.25"
     cy="411.14188"
     cx="36.25" />
  <circle
     style="fill:#008080"
     id="circle5937"
     opacity="0.1"
     fill="#6c63ff"
     r="36.25"
     cy="590.14191"
     cx="71" />
  <circle
     style="fill:#008080"
     id="circle5939"
     opacity="0.1"
     fill="#6c63ff"
     r="36.25"
     cy="524.25189"
     cx="1043.92" />
  <path
     id="path5941"
     fill="#be6f72"
     d="m 354.35,529.39188 a 39,39 0 0 1 -0.53,9.1 c -2,9.29 -10.46,15.67 -18.65,20.51 -8.19,4.84 -17.19,9.42 -22.06,17.59 -5.87,9.87 -4,23.14 2.89,32.36 6.89,9.22 17.81,14.71 29.05,17 20.5,4.23 42.95,-1.71 58.32,-15.91 15.37,-14.2 23.08,-36.39 19.31,-57 -8.34,1.17 -15.77,-6.19 -18.47,-14.17 -2.7,-7.98 -2.14,-16.63 -3.19,-25 a 8.58,8.58 0 0 0 -1.24,-4 c -1.17,-1.62 -3.24,-2.28 -5.17,-2.81 -9.64,-2.65 -25.86,-8.45 -35.85,-6.23 -9,2.06 -4.56,21 -4.41,28.56 z" />
  <path
     id="path5943"
     opacity="0.1"
     d="m 354.35,529.39188 a 39,39 0 0 1 -0.53,9.1 c -2,9.29 -10.46,15.67 -18.65,20.51 -8.19,4.84 -17.19,9.42 -22.06,17.59 -5.87,9.87 -4,23.14 2.89,32.36 6.89,9.22 17.81,14.71 29.05,17 20.5,4.23 42.95,-1.71 58.32,-15.91 15.37,-14.2 23.08,-36.39 19.31,-57 -8.34,1.17 -15.77,-6.19 -18.47,-14.17 -2.7,-7.98 -2.14,-16.63 -3.19,-25 a 8.58,8.58 0 0 0 -1.24,-4 c -1.17,-1.62 -3.24,-2.28 -5.17,-2.81 -9.64,-2.65 -25.86,-8.45 -35.85,-6.23 -9,2.06 -4.56,21 -4.41,28.56 z" />
  <path
     id="path5945"
     fill="#be6f72"
     d="m 342.7,972.10188 a 199.93,199.93 0 0 1 -29.74,12.62 157.47,157.47 0 0 1 -17.08,4.36 107.5,107.5 0 0 1 1.25,-23 c 0.78,-4.37 1.93,-8.7 2.23,-13.13 a 34.44,34.44 0 0 0 -3.95,-18.44 c 11.14,-1.52 21.72,-4 32.91,-3.27 l 0.71,0.05 a 12.48,12.48 0 0 1 3.9,0.73 10.53,10.53 0 0 1 4.23,3.72 25.61,25.61 0 0 1 1.59,2.45 c 3.16,5.46 4.36,11.76 4.61,18.25 a 121.38,121.38 0 0 1 -0.66,15.66 z" />
  <path
     id="path5947"
     fill="#be6f72"
     d="m 401.01,947.48188 q -5.34,1.25 -10.48,2.85 a 186.58,186.58 0 0 0 -26.89,11.07 39.69,39.69 0 0 1 -0.82,-8.28 46.24,46.24 0 0 1 35.35,-7.27 4.67,4.67 0 0 1 2.24,0.9 3,3 0 0 1 0.6,0.73 z" />
  <path
     style="fill:url(#linearGradient8029)"
     id="path5949"
     fill="#3f3d56"
     d="m 418.2,897.00188 c -0.68,6.54 -1.68,13.1 -4,19.25 -2.51,6.6 -6.59,13 -6.07,20.05 0.23,3.06 1.27,6.38 1.42,9.41 q -4.32,0.79 -8.53,1.78 -5.34,1.25 -10.48,2.85 a 186.58,186.58 0 0 0 -26.89,11.07 c -1.71,0.84 -3.4,1.69 -5.09,2.55 v 0 c -0.7,-0.09 -1.39,-0.2 -2.09,-0.33 -5,-0.91 -10.26,-3.15 -13.09,-7.15 a 11.48,11.48 0 0 1 -1.51,-3 c -1.63,-4.87 0.07,-10.94 -3.32,-14.8 l -0.16,0.14 -0.12,0.08 a 33.59,33.59 0 0 1 -6.08,4.38 v 0 a 40.75,40.75 0 0 1 -33,3.18 36.16,36.16 0 0 1 -6.19,-2.78 c -4.58,-2.61 -9,-7 -8.64,-12.24 0.2,-2.92 1.87,-5.72 1.42,-8.61 -0.33,-2.07 -1.69,-3.79 -2.71,-5.62 -6.69,-12 1.29,-27.43 -2.91,-40.47 -0.1,-0.31 -0.21,-0.62 -0.32,-0.92 -0.31,-0.85 -0.66,-1.67 -1,-2.49 -0.86,-1.91 -1.82,-3.79 -2.58,-5.75 a 33.48,33.48 0 0 1 -1.5,-5.07 63.46,63.46 0 0 1 -1,-15.22 c 0,-13.43 2.4,-27.18 5.82,-40.12 0.61,-2.3 1.29,-5.55 2.19,-9.09 v 0 a 69.6,69.6 0 0 1 3.54,-10.92 c 2,-4.6 4.72,-8.27 8.44,-9.14 5.6,-1.31 14.16,1.46 19.84,2.14 l 22.45,2.68 44.89,5.37 c 7.75,0.93 15.89,2 22.28,6.36 0.42,0.29 0.83,0.59 1.24,0.91 a 25.34,25.34 0 0 1 4.5,4.58 c 0.46,0.59 0.9,1.21 1.32,1.84 a 41.62,41.62 0 0 1 3.7,7.06 c 5.57,13.38 5.7,28.31 5.74,42.8 0,15.12 0.05,30.23 -1.51,45.24 z" />
  <path
     style="fill:url(#linearGradient8029);filter:url(#filter8033)"
     id="path5951"
     opacity="0.1"
     d="m 332.14,943.34188 c -1.35,-5.2 -4.2,-12.73 -4.62,-14.78 a 187.54,187.54 0 0 1 -3.06,-20.82 c -1.11,-12.46 -3.11,-30 1.29,-41.85 4.13,2.2 7.76,8.43 9.67,12.68 6.92,15.41 -0.87,34.33 5.63,49.92 a 8.22,8.22 0 0 1 0.89,3 7.26,7.26 0 0 1 -1.38,3.68 l -2.19,3.64 z" />
  <path
     id="path5953"
     fill="#be6f72"
     d="m 476.16,467.60188 c 7.36,-12 17.44,-23.8 16.81,-37.83 -0.23,-5 -1.87,-9.89 -3.12,-14.79 a 94.36,94.36 0 0 1 -0.69,-43.29 48.89,48.89 0 0 1 35.36,7.92 c 3.27,2.26 6.37,5.07 7.81,8.78 1.33,3.42 1.11,7.23 0.87,10.89 -0.55,8.41 -1.3,17.38 -6.48,24 -1.61,2.07 -3.59,3.82 -5.16,5.91 -2.29,3 -3.63,6.66 -4.94,10.23 l -17,46.25 c -8.58,23.31 -17.88,47.69 -36.78,63.82 -0.46,0.39 -14,-18.84 -15.12,-20.77 -4.53,-7.91 -2.55,-11.25 2.93,-17.87 10.81,-13.09 16.68,-28.88 25.51,-43.25 z" />
  <path
     id="path5955"
     fill="#fbbebe"
     d="m 281.34,861.81188 a 76.81,76.81 0 0 1 -0.87,10.31 c -0.18,1.26 -0.39,2.51 -0.64,3.76 -3.41,17.8 -11.9,34.73 -17.84,52.07 -7.83,22.89 -11.27,42.75 -14,65.48 -7.87,0 -15.75,-0.17 -23.54,-0.58 h -0.24 c -2.66,-0.14 -5.33,-0.3 -8,-0.5 2.41,-21.2 -2,-43.44 2.31,-64.66 1.74,-8.54 4.71,-16.83 6.5,-25.33 a 71.71,71.71 0 0 0 1.25,-7.58 c 0.25,-2.42 0.38,-4.93 1.47,-7.11 a 5.24,5.24 0 0 1 0.34,-0.61 17.13,17.13 0 0 1 3.52,-4 87.83,87.83 0 0 1 43.06,-20.53 c 2.27,-0.31 4.48,-0.57 6.68,-0.72 z" />
  <path
     id="path5957"
     opacity="0.1"
     d="m 281.34,861.81188 a 76.81,76.81 0 0 1 -0.87,10.31 c -0.18,1.26 -0.39,2.51 -0.64,3.76 -3.41,17.8 -11.9,34.73 -17.84,52.07 -7.83,22.89 -11.27,42.75 -14,65.48 -7.87,0 -15.75,-0.17 -23.54,-0.58 h -0.24 c -2.66,-0.14 -5.33,-0.3 -8,-0.5 2.41,-21.2 -2,-43.44 2.31,-64.66 1.74,-8.54 4.71,-16.83 6.5,-25.33 a 71.71,71.71 0 0 0 1.25,-7.58 c 0.25,-2.42 0.38,-4.93 1.47,-7.11 a 5.24,5.24 0 0 1 0.34,-0.61 17.13,17.13 0 0 1 3.52,-4 87.83,87.83 0 0 1 43.06,-20.53 c 2.27,-0.31 4.48,-0.57 6.68,-0.72 z" />
  <path
     id="path5959"
     fill="#fbbebe"
     d="m 230.64,907.38188 a 156.7,156.7 0 0 1 -1.37,16.61 c -2.67,22.51 -3.17,46 -5,68.85 -2.66,-0.14 -5.33,-0.3 -8,-0.5 -12.16,-0.83 -24.28,-2.11 -36.22,-3.86 q 1.38,-7.72 2.78,-15.44 c 1.14,-6.31 2.28,-12.68 1.95,-19.08 -0.31,-6.05 -1.93,-11.94 -3.22,-17.87 -2.75,-12.7 -4.29,-26.4 -8.82,-38.38 a 50,50 0 0 0 -11.06,-18 c 18.74,-7.36 36.75,-7.78 56.88,-7 a 7.21,7.21 0 0 1 4.08,1 6.9,6.9 0 0 1 2.05,3.1 77.57,77.57 0 0 1 5.63,22.82 74.85,74.85 0 0 1 0.32,7.75 z" />
  <circle
     id="circle5961"
     fill="#be6f72"
     r="39"
     cy="485.23187"
     cx="381.59" />
  <path
     id="path5963"
     fill="#e3e8f4"
     d="m 389.7,576.38188 c 5,-8.53 9.38,-19.18 19,-21.55 5.43,-1.35 11.08,0.49 16.37,2.3 a 8,8 0 0 1 4,2.32 7.86,7.86 0 0 1 1.21,4.14 271.06,271.06 0 0 1 -0.17,53 c -1.27,12.47 -3.41,24.88 -3.79,37.41 -0.53,17.37 2.33,34.74 1.39,52.09 -0.71,13.15 -3.59,26.07 -6.45,38.92 l -12,53.8 a 9.17,9.17 0 0 1 -1.93,4.55 9,9 0 0 1 -3.54,2 131.76,131.76 0 0 1 -106.63,-8.35 c -4.33,-2.38 -8.65,-5.13 -11.47,-9.19 -4,-5.76 -4.37,-13.38 -3.07,-20.28 1.3,-6.9 4.11,-13.41 6,-20.18 2.92,-10.5 3.61,-21.46 4.27,-32.34 0.88,-14.32 1.76,-28.73 0.23,-43 -1.05,-9.83 -3.24,-19.51 -4.89,-29.26 a 322.73,322.73 0 0 1 -4.22,-44.43 c -0.25,-8.89 0.16,-18.76 6.31,-25.17 3,-3.12 7,-5 11.07,-6.52 6.83,-2.52 14.46,-4 21.36,-1.7 6.9,2.3 12.46,9.54 10.83,16.63 -0.75,3.29 -2.88,6.17 -3.4,9.51 -0.69,4.42 1.65,8.87 5,11.86 18.02,16.28 45.53,-11.12 54.52,-26.56 z" />
  <path
     id="path5965"
     fill="#3f3d56"
     d="m 391.13,536.53188 a 29.49,29.49 0 0 1 17.09,-1 c 3.61,0.86 7.51,2.38 10.84,0.77 1.21,-0.58 2.21,-1.53 3.43,-2.07 3.3,-1.45 7.58,0.33 10.5,-1.78 1.84,-1.33 2.44,-3.75 3.06,-5.95 a 53.35,53.35 0 0 1 17.63,-26.72 c -1.05,7.67 -1.81,16.4 3.26,22.26 2.31,2.66 5.55,4.33 8.83,5.63 4.71,1.87 9.88,3.11 14.85,2.09 4.97,-1.02 9.62,-4.78 10.41,-9.79 -0.17,7.53 -7.34,12.79 -9.35,20.06 -0.76,2.72 -0.69,5.61 -1.22,8.39 -1.35,7.1 -6.42,12.8 -10.85,18.52 a 131.76,131.76 0 0 0 -26.2,63.22 30.5,30.5 0 0 1 -1.7,8 50.31,50.31 0 0 1 -3.32,5.72 c -7.33,12.38 -5.07,28 -2.58,42.14 3.89,22.15 7.77,43.85 14.07,65.44 1.08,3.69 2.3,7.54 5.05,10.23 -0.87,8.73 -9.68,12.71 -17.6,16.48 a 86.34,86.34 0 0 0 -21.4,14.49 c -2.28,2.1 -4.53,4.46 -5.36,7.45 -0.78,2.81 -0.22,5.9 -1.22,8.63 -1,2.73 -5,4.69 -6.76,2.39 -2.2,-8.23 1.56,-16.84 1.39,-25.36 -0.12,-5.75 -2,-11.34 -2.27,-17.09 -0.26,-6.51 1.66,-12.9 3.7,-19.08 5.68,-17.21 12.54,-34.26 14.51,-52.27 1.97,-18.01 -1.71,-37.68 -14.49,-50.53 -15.17,-15.32 -23.59,-36.09 -39.85,-50.16 -2.58,-2.23 -5.5,-5 -5.07,-8.38 a 9.33,9.33 0 0 1 1.91,-4.06 c 5.58,-7.88 13,-14.31 19,-21.85 6,-7.54 10.8,-16.22 9.71,-25.82 z" />
  <path
     id="path5967"
     fill="#3f3d56"
     d="m 337.74,552.66188 c -1,1 -1.69,2.38 -2.85,3.24 a 9.4,9.4 0 0 1 -4.49,1.39 145.17,145.17 0 0 1 -17.77,1.59 c -5,0 -10.19,-0.44 -15,0.93 -6.71,1.9 -12.07,7.2 -15.43,13.3 -3.36,6.1 -4.95,13 -6.24,19.87 a 265.73,265.73 0 0 0 -4.55,45.89 120.69,120.69 0 0 0 21.85,-22.68 c 4.8,-6.51 9.15,-13.71 16,-18.06 3.15,-2 6.69,-3.32 9.86,-5.27 6.61,-4.07 11.19,-10.65 15.59,-17 3.24,-4.71 12.61,-13.91 13.35,-19.55 0.63,-5.39 -6.82,-8.02 -10.32,-3.65 z" />
  <path
     id="path5969"
     fill="#3f3d56"
     d="m 372.58,458.53188 a 31.62,31.62 0 0 1 3.54,2.47 c 6.79,4.74 15.88,3.86 24.09,2.78 2.52,-0.32 5.11,-0.68 7.27,-2 3.47,-2.14 5.1,-6.54 4.76,-10.61 -0.34,-4.07 -2.39,-7.82 -4.89,-11 a 39.57,39.57 0 0 0 -27.35,-14.92 17.6,17.6 0 0 0 -8.19,0.87 c -3.23,1.33 -5.66,4.07 -8.64,5.9 -8.79,5.4 -22.33,3 -28,11.62 -4.15,6.36 -1.19,15 -3.15,22.31 -1.46,5.46 -5.67,10.43 -4.86,16 0.45,3 2.33,5.62 3.83,8.3 a 36.68,36.68 0 0 1 4.59,20.23 c 3.85,2.72 9.22,-1.51 10.29,-6.09 1.07,-4.58 -0.16,-9.46 0.75,-14.08 1.61,-8.11 8.77,-14.06 12,-21.5 2.32,-5.33 6.1,-14.33 13.96,-10.28 z" />
  <path
     id="path5971"
     fill="#fbbebe"
     d="m 278.02,547.30188 c -0.3,1.82 -0.49,3.83 0.52,5.37 2,3 6.58,1.92 10.18,2.37 5.61,0.69 9.75,6 10.84,11.58 1.09,5.58 -0.21,11.26 -1.63,16.74 q -4.82,18.63 -11.48,36.73 c -11.94,-1.41 -24.51,-6 -30.85,-16.19 -5.76,-9.27 -5.17,-21.08 -8.83,-31.36 -2.57,-7.24 -7.18,-13.54 -11.74,-19.72 7.33,0.92 12.57,-7.46 13,-14.84 0.43,-7.38 -1.89,-14.87 -0.31,-22.08 0.37,-1.71 29.26,3.68 32.07,5.63 8.12,5.63 -0.49,17.95 -1.77,25.77 z" />
  <path
     id="path5973"
     opacity="0.1"
     d="m 278.02,547.30188 c -0.3,1.82 -0.49,3.83 0.52,5.37 2,3 6.58,1.92 10.18,2.37 5.61,0.69 9.75,6 10.84,11.58 1.09,5.58 -0.21,11.26 -1.63,16.74 q -4.82,18.63 -11.48,36.73 c -11.94,-1.41 -24.51,-6 -30.85,-16.19 -5.76,-9.27 -5.17,-21.08 -8.83,-31.36 -2.57,-7.24 -7.18,-13.54 -11.74,-19.72 7.33,0.92 12.57,-7.46 13,-14.84 0.43,-7.38 -1.89,-14.87 -0.31,-22.08 0.37,-1.71 29.26,3.68 32.07,5.63 8.12,5.63 -0.49,17.95 -1.77,25.77 z" />
  <circle
     id="circle5975"
     fill="#fbbebe"
     r="39"
     cy="496.23187"
     cx="271.59" />
  <path
     id="path5977"
     fill="#3f3d56"
     d="m 259.58,541.70188 c 1.42,-2.22 -1,-5.32 0.11,-7.71 0.66,-1.44 2.33,-2.06 3.62,-3 a 13.49,13.49 0 0 0 3.77,-4.89 56.84,56.84 0 0 0 5.2,-37.95 c -0.92,-4.32 -1.74,-10.06 2.21,-12 a 7.17,7.17 0 0 1 3.49,-0.6 c 7.12,0.23 14,5 20.91,3.31 a 12,12 0 0 0 8.8,-10.47 c 0.45,-6.46 -4.39,-12 -9.15,-16.35 -8.57,-7.88 -21.63,-9.63 -33.27,-9.82 l -21.65,-0.36 c -6.93,-0.12 -14.7,0.1 -19.52,5.07 -6.94,7.15 -3.45,18.85 -4.45,28.76 a 30,30 0 0 1 -11,20.15 c -4.49,3.58 -10.67,7 -10.59,12.72 0,2 0.86,3.82 1.41,5.71 2.21,7.48 0.1,15.75 -4.14,22.3 -4.24,6.55 -10.44,11.59 -16.87,16 -3.44,2.35 -7,4.61 -9.72,7.8 a 23,23 0 0 0 -5.07,12.93 17,17 0 0 0 2.12,10.43 c 4.23,6.76 14.38,7.75 21.33,3.83 6.95,-3.92 11.19,-11.34 14,-18.8 1.68,-4.43 3.39,-9.5 7.69,-11.49 5.44,-2.53 11.8,1.47 15.34,6.32 3.54,4.85 5.72,10.77 10.25,14.71 7.1,6.18 19.18,5.18 25.18,-2.08 4.29,-5.21 5.24,-12.42 5,-19.17 a 27.93,27.93 0 0 0 -5,-15.35 z" />
  <path
     style="fill:#009fb5;fill-opacity:1"
     id="path5979"
     fill="#f86d70"
     d="m 273.58,592.53188 c -4.45,0.95 -9.1,-1.15 -12.41,-4.29 -3.31,-3.14 -5.54,-7.19 -7.86,-11.11 a 195.6,195.6 0 0 0 -20.15,-27.94 c -6.56,-7.57 -15.69,-15.26 -25.43,-12.92 a 24.13,24.13 0 0 0 -8.88,4.75 64.74,64.74 0 0 0 -24.17,57.78 c 0.76,6.37 2.49,12.6 3.21,19 a 121.79,121.79 0 0 1 0.42,15.87 c -0.27,16.12 -0.82,33.17 -9.51,46.75 -13.47,21 -20.68,46.08 -30.57,69 -5.34,12.39 -8.54,25.58 -11.68,38.7 q -2.79,11.68 -5.57,23.35 l -12.1,50.9 c -1.25,5.25 -2.5,10.75 -1.18,16 2,7.84 9.37,13.32 17.14,15.55 7.77,2.23 16,1.85 24.07,1.92 15.44,0.15 31,2.07 45.49,7.43 4.14,1.53 8.27,3.36 12.68,3.72 4.41,0.36 8.8,-0.79 12.93,-2.39 11.27,-4.36 20.93,-12 31.31,-18.17 a 123.73,123.73 0 0 1 20.4,-9.87 c 3.56,-1.33 7.38,-2.59 9.83,-5.5 1.85,-2.19 2.68,-5.05 3.29,-7.85 3.38,-15.76 1.11,-32.09 0,-48.17 -1.11,-16.08 -10.72,-33.07 -2.77,-47.09 1.6,-2.83 3.51,-5.55 4.33,-8.69 1.08,-4.1 0.17,-8.51 1.08,-12.65 0.67,-3.06 2.28,-5.81 3.38,-8.74 1.92,-5.16 2.18,-10.78 2.16,-16.29 a 178.75,178.75 0 0 0 -3.8,-36 c -3.15,-15 7.27,-29.83 13.24,-44 2.14,-5.07 5.17,-9.86 6.06,-15.29 0.8,-4.9 -0.23,-9.89 -1,-14.8 a 129.5,129.5 0 0 1 -1.4,-23 c 0.19,-6.9 0.92,-13.93 -0.73,-20.64 -1.65,-6.71 -6.36,-13.22 -13.13,-14.6 a 5.36,5.36 0 0 0 -4.52,0.71 5.85,5.85 0 0 0 -1.59,2.8 c -2.2,6.74 -1.77,14 -3,21 -1.23,7 -2.67,13.29 -9.57,14.77 z" />
  <path
     id="path5981"
     fill="#be6f72"
     d="m 179.21,635.48188 c 0.41,-2.77 -0.88,-6.45 -3.68,-6.35 -2.58,0.1 -3.73,3.33 -3.72,5.92 0.01,2.59 0.36,5.56 -1.47,7.38 -1.62,1.61 -4.3,1.56 -6.18,2.87 a 5.08,5.08 0 0 0 -2.13,4.17 c 0,1.39 0.63,2.72 0.67,4.11 0.04,1.39 -0.89,3 -2.27,2.91 a 6.27,6.27 0 0 0 0.91,7.6 c 0.72,0.7 1.66,1.3 1.9,2.28 a 5.5,5.5 0 0 1 -0.16,2.05 c -0.42,2.75 1.48,5.83 4.25,6.13 -1.55,1.11 -1.24,3.71 0.18,5 1.42,1.29 3.46,1.54 5.37,1.54 a 32.64,32.64 0 0 0 12.61,-2.61 7.52,7.52 0 0 0 3.48,-2.4 3,3 0 0 0 -0.29,-3.88 c 1.94,0.32 4.27,0.5 5.54,-1 1.77,-2.1 -0.13,-5.21 -2,-7.24 a 4,4 0 0 0 1.86,-7.12 c -0.64,-0.47 -1.51,-0.88 -1.6,-1.67 -0.09,-0.79 0.58,-1.3 0.86,-2 0.64,-1.57 -0.82,-3.17 -2.23,-4.12 -3.34,-2.22 -8.26,-2.18 -11.23,-4.42 -2.97,-2.24 -1.1,-6.15 -0.67,-9.15 z" />
  <path
     id="path5999"
     fill="#fbbebe"
     d="m 708.99,530.78188 c -16.24,-5.57 -24,-27.33 -41,-29.77 -2.68,-0.39 -5.43,-0.24 -8.06,-0.86 -9.79,-2.32 -14,-13.64 -16.83,-23.29 -9.54,-32.17 -22,-63.65 -39.7,-92.17 -7.47,-12 -19.28,-21.86 -24.67,-35 -1.24,-3 -1.87,-6.42 -4.1,-8.79 -2.23,-2.37 -7,-2.71 -8.21,0.31 a 7,7 0 0 0 -0.22,3.31 l 1.17,12.45 -20.34,-1.83 a 11.88,11.88 0 0 0 -5.63,0.4 9.55,9.55 0 0 0 -4.43,4.61 c -6.88,12.93 0.45,29.87 12.59,38.05 14.18,9.55 34.43,11 43.85,25.25 5.6,8.48 5.71,19.39 9.4,28.86 1.76,4.53 4.33,8.69 6.38,13.08 3.91,8.37 5.91,17.47 8.94,26.19 4.34,12.47 10.77,24.09 17.18,35.64 4.94,8.92 10,18 17.6,24.82 5,4.48 10.88,7.8 16.76,11 14.46,7.9 31.51,15.5 46.83,9.44 0.88,-13.66 -2.55,-28.89 -7.51,-41.7 z" />
  <g
     style="fill:#cf6363;fill-opacity:1"
     transform="matrix(0.01918388,0.0089456,0.0089456,-0.01918388,346.32907,422.20824)"
     fill="#000000"
     stroke="none"
     id="g7772">
    <path
       style="fill:#cf6363;fill-opacity:1"
       d="m 7790,12689 c -915,-395 -1867,-744 -2385,-873 -225,-56 -316,-69 -450,-67 -66,2 -154,4 -195,4 l -76,2 -130,180 c -87,121 -136,181 -150,183 -14,2 -80,85 -210,267 -104,146 -197,267 -206,270 -26,9 -76,-22 -283,-172 -168,-122 -190,-141 -192,-168 -3,-25 30,-76 191,-300 137,-191 191,-274 184,-282 -5,-7 -6,-18 -2,-25 8,-15 166,-237 202,-285 l 24,-32 -101,-50 c -312,-157 -698,-292 -1031,-360 -342,-70 -756,-84 -1088,-36 -567,82 -1106,309 -1697,713 -143,98 -176,114 -190,92 -8,-13 28,-280 71,-519 413,-2327 1778,-4135 4117,-5455 76,-43 144,-75 152,-72 18,7 19,67 5,301 -85,1411 41,2227 451,2918 123,207 330,464 501,621 l 81,74 89,-124 c 58,-79 96,-124 108,-124 12,0 287,-376 882,-1207 2646,-3696 4118,-5753 4916,-6868 492,-687 904,-1261 917,-1274 17,-18 30,-22 48,-17 14,3 120,74 236,156 231,165 240,175 200,232 -39,55 -3497,4885 -5743,8023 -750,1047 -931,1305 -929,1328 2,21 -30,71 -138,222 -136,189 -140,195 -124,218 8,13 26,56 39,95 122,357 680,1019 1790,2121 205,203 336,341 334,350 -2,9 -10,17 -18,18 -8,1 -98,-34 -200,-78 z"
       id="path7770" />
  </g>
  <path
     d="m 578.5325,380.44632 c 0,13.75435 -8.31239,24.90445 -18.56625,24.90445 -10.25386,0 -20.33073,-15.62211 -25.8559,-28.21792 -11.26581,-25.68285 8.3124,-24.90445 18.56626,-24.90445 10.25386,10e-6 25.85589,14.46358 25.85589,28.21792 z"
     style="opacity:1;fill:#fcbaba;fill-opacity:1;stroke:none;stroke-width:4"
     id="path7798" />
  <g
     style="fill:url(#linearGradient8023);fill-opacity:1"
     transform="matrix(-0.09555853,0,0,0.11544818,715.52411,-1000.2501)"
     fill="#000000"
     stroke="none"
     id="g7944">
    <path
       style="fill:url(#linearGradient8023);fill-opacity:1;stroke-width:0.323001"
       d="m 2057.7317,12795.246 c -41.9901,-8.075 -85.5953,-43.282 -105.2983,-84.626 -31.0081,-65.569 -15.8271,-137.922 39.0831,-185.403 16.1501,-13.889 17.7651,-16.473 17.7651,-28.424 0,-7.429 1.615,-14.858 3.23,-16.473 2.584,-2.584 -0.969,-55.556 -11.3051,-171.191 -8.075,-92.055 -17.765,-202.521 -21.641,-245.158 -5.1681,-60.078 -7.7521,-78.166 -11.6281,-81.073 -3.23,-2.584 -5.168,-9.367 -5.168,-21.641 -0.323,-20.672 3.23,-18.734 -42.3132,-24.871 -57.8172,-8.398 -140.8285,-29.07 -205.1057,-51.357 -32.6231,-10.982 -53.9412,-19.703 -129.8464,-52.649 -14.5351,-6.137 -15.5041,-7.429 -15.5041,-18.411 0,-34.239 33.9151,-111.113 50.7112,-115.312 4.845,-1.292 15.504,3.23 36.1761,16.15 75.5823,46.835 147.9345,81.397 219.9638,105.299 56.5252,18.734 106.5904,30.362 108.2054,24.871 0.646,-2.261 2.584,-245.804 4.845,-541.673 1.938,-295.869 4.845,-712.864 6.46,-927.014 1.615,-214.149 4.522,-613.0557 6.137,-886.6377 4.5221,-658.5993 4.8451,-671.5194 13.2431,-691.2225 9.044,-20.995 37.1451,-67.8302 62.3392,-104.3293 l 20.9951,-30.0391 25.5171,38.1141 c 26.1631,38.4371 54.2642,85.2723 61.6932,102.3914 4.522,10.013 6.46,350.4562 13.889,2127.2851 1.938,503.559 3.8761,916.032 4.5221,916.678 1.615,1.615 52.0031,-9.367 85.5953,-19.057 71.3832,-20.672 160.2085,-60.725 237.0828,-106.914 22.6101,-13.889 43.6052,-25.194 45.8662,-25.194 10.659,0 38.4371,58.463 46.5121,97.546 5.8141,29.717 7.7521,28.102 -76.2282,62.34 -92.0554,37.791 -212.8578,70.737 -295.5461,80.75 -15.827,1.938 -18.0881,3.23 -16.796,8.398 2.907,10.336 -2.2611,29.07 -10.0131,36.499 -6.783,6.46 -8.398,16.473 -24.2251,168.284 -9.69,88.825 -21.318,197.999 -26.1631,242.251 -8.398,78.489 -8.398,81.073 -2.584,88.502 3.23,4.199 5.814,12.274 5.814,17.765 0,8.398 3.2301,13.243 17.7651,25.517 30.6851,26.809 46.5122,55.556 53.2952,97.223 9.69,60.079 -24.8711,128.232 -79.4583,157.625 -30.3621,16.473 -72.0292,22.287 -107.8824,15.181 z"
       id="path7942" />
  </g>
  <path
     style="fill:#008679;fill-opacity:1;stroke-width:0.066667"
     id="path4562"
     d="m 540.33104,132.53118 c 4.43155,3.81015 10.34948,14.43734 11.47585,20.53673 1.55747,8.35452 0.44948,15.5807 -3.26887,22.24548 -4.29914,7.54445 -11.48351,14.52284 -18.93898,18.39178 l -3.60518,1.86376 2.83803,0.48438 c 1.5156,0.26805 5.27575,1.68971 8.25864,3.17915 l 5.48505,2.71206 -3.55567,-0.1245 c -4.29849,-0.18553 -6.25349,0.67102 -3.43729,1.49463 1.01306,0.34044 2.57576,0.69017 3.47734,0.93175 0.91873,0.17719 2.05604,0.82699 2.5792,1.45031 0.77615,0.96717 0.35521,0.99242 -3.13938,0.12506 -7.11806,-1.76923 -14.00869,0.24948 -22.03814,6.51832 -2.70368,2.10533 -5.61322,3.94844 -6.53662,4.04611 -2.05733,0.20796 -3.50303,2.51232 -1.82869,2.96097 0.70833,0.18979 1.30053,0.55552 1.36031,0.84761 0.3207,1.12121 -3.04204,4.91347 -4.07234,4.6374 -0.83722,-0.22432 -0.87172,-0.0955 -0.24583,1.17648 0.95544,1.84343 0.53666,3.66376 -0.87195,3.76946 -1.50758,0.2172 -1.5514,0.89566 -0.006,2.34474 2.65962,2.43812 1.36792,5.19787 -2.50162,5.47238 l -2.25048,0.1562 1.37628,1.81818 c 1.01192,1.37545 1.17396,2.3161 0.65631,4.24796 -0.70745,2.64022 -3.78745,6.92235 -6.70621,9.31513 -1.60773,1.36371 -2.24954,2.98624 -7.38431,19.83139 -3.04822,10.08823 -6.3414,20.31789 -7.33639,22.74302 -0.91321,2.37802 -1.67579,4.45132 -1.5815,4.61463 -11.54615,12.71984 -10.24673,30.09694 -16.55786,45.05007 l -4.14114,15.45493 c -2.27762,8.50022 -4.39489,16.14615 -4.70131,17.03032 -0.24157,0.90154 -0.44645,3.46936 -0.43627,5.74971 0.0353,2.70123 -0.57905,6.53969 -1.76962,10.98298 -1.63494,5.84265 -2.35804,7.51241 -4.90892,11.10808 -1.67339,2.3814 -3.51129,5.89203 -4.15775,7.78939 -0.64645,1.89734 -2.7065,8.0402 -4.61125,13.6035 -11.71413,34.9597 -10.88589,31.86869 -10.52628,36.45128 0.20328,2.33211 -0.0798,5.70719 -0.58026,7.57466 -1.05254,3.92812 -4.55243,11.06555 -6.9481,14.08164 -1.19146,1.61328 -2.54407,5.11591 -4.9631,13.37117 -1.78526,6.14748 -4.53093,14.5913 -5.99172,18.75513 -1.52517,4.1466 -3.47712,9.62822 -4.42492,12.13501 -1.44345,4.09946 -1.57355,5.0999 -1.0036,9.66983 l 0.59524,4.99081 -3.41352,6.81548 c -1.88976,3.7038 -4.07147,7.46741 -5.00886,8.38955 -1.07067,1.16253 -2.12995,3.57043 -3.40222,8.06086 -1.07773,3.50726 -3.7165,12.32482 -5.85946,19.54976 -3.25529,10.86098 -3.97197,14.05089 -4.13561,18.01013 -0.27087,7.45048 -1.87435,12.40431 -5.56493,17.42007 -2.92929,3.97742 -3.35144,5.03764 -8.06286,19.78761 -2.71572,8.58989 -5.44414,16.96931 -6.05608,18.73785 -1.10302,3.08641 -1.60044,5.71389 -3.45842,19.08885 l -0.96997,6.71103 -3.7689,5.823 c -4.13454,6.41522 -5.96106,11.17123 -13.4838,35.38273 -3.31974,10.84373 -3.82477,12.98603 -3.84237,16.9154 0.0129,10.77043 -0.078,11.36725 -2.51389,15.8219 -1.25253,2.35613 -3.1629,5.36422 -4.26809,6.65554 -1.40189,1.62594 -2.59462,4.27414 -3.84033,8.1505 -1.03866,3.10364 -3.43923,10.25953 -5.34408,15.82283 -3.22751,9.21193 -3.53809,10.37106 -3.32333,13.94857 0.14227,3.07497 -0.35932,5.97741 -2.55067,14.15564 -2.65722,9.91691 -2.87727,10.4791 -5.81877,14.24619 -2.44744,3.2093 -3.51932,5.40677 -5.55755,11.21039 -1.65058,4.87216 -2.80882,7.39159 -3.47469,7.5583 -1.82153,0.61621 -4.42266,-0.49487 -5.02624,-2.106 -0.30801,-0.91077 -0.94273,-1.63301 -1.49248,-1.64226 -1.50292,-0.0576 -0.88175,-2.37583 1.46664,-5.47361 1.83671,-2.4757 2.81436,-4.83643 5.33236,-13.20324 1.64715,-5.6323 4.23753,-13.49661 5.64655,-17.46724 4.32139,-11.74861 5.92271,-18.49754 5.47683,-22.75816 -0.60784,-5.20123 0.34919,-8.25772 4.28478,-13.41487 l 3.40648,-4.47072 6.50134,-21.1723 6.5186,-21.23666 -1.05646,-3.52693 c -0.91979,-3.00727 -0.9311,-4.25263 -0.004,-7.45514 1.28904,-4.55496 4.28895,-9.82479 7.38027,-12.86155 2.35185,-2.33761 1.72731,-0.7795 11.10641,-29.60099 l 4.36642,-13.46206 -0.92644,-4.52744 c -1.04604,-5.11158 -0.81706,-6.22358 2.73114,-14.31429 1.80004,-4.142 3.14679,-6.33481 4.87073,-7.87447 2.34719,-2.0628 2.39896,-2.25599 7.85707,-20.04978 3.06082,-9.87777 6.3414,-20.31787 7.22942,-23.11676 1.37909,-4.1167 1.73847,-6.22901 1.65677,-10.04695 -0.11708,-2.65409 0.097,-5.77159 0.40762,-6.93071 0.69019,-2.57582 4.22339,-8.80709 6.20142,-11.03783 1.0535,-1.09809 2.57408,-4.96982 5.16904,-13.10894 1.98309,-6.37053 5.56492,-17.4201 7.9655,-24.576 l 4.26289,-13.07566 -0.0305,-6.84107 c -0.028,-8.91095 0.64028,-11.14754 4.1571,-14.48439 l 2.75979,-2.57335 6.89692,-21.61843 6.87974,-21.554 -0.15713,-5.08049 c -0.1845,-7.29643 3.00971,-17.41456 7.14314,-22.79481 2.7613,-3.6083 3.01556,-4.29938 8.09856,-20.95135 2.89293,-9.50866 6.08722,-19.62678 7.15581,-22.58434 1.68045,-4.72615 1.87948,-5.98418 1.54057,-9.87103 10.93708,-23.31114 12.62547,-37.11636 17.33688,-62.33353 2.17805,-4.52259 -0.88113,-3.30042 2.16808,-7.72671 2.11152,-1.33835 3.66687,-0.96313 4.65038,-4.63368 0.58667,-2.18945 0.96876,-5.67605 0.90681,-7.76322 -0.12166,-2.37924 0.441,-6.02453 1.47629,-9.88826 1.31561,-5.169 1.95315,-6.51659 3.71618,-8.45986 2.10684,-2.19623 2.41284,-3.0805 5.74302,-15.50885 l 3.51996,-13.1367 -1.50636,-0.81774 c -1.85821,-1.05006 -1.37388,-3.88809 0.66619,-4.03166 0.69572,-0.0206 1.62836,-0.66797 1.98148,-1.47061 0.60263,-1.2189 0.43136,-1.60988 -0.89908,-2.31147 -0.91418,-0.45202 -1.70758,-1.35479 -1.8099,-2.00339 -0.12287,-1.34428 1.40324,-2.66083 2.69109,-2.31574 0.51523,0.13805 1.05686,-0.338 1.22942,-0.98195 0.1898,-0.70835 0.76594,-1.31318 1.20413,-1.40283 0.69573,-0.0206 0.67045,-0.44152 0.005,-1.30979 -0.50591,-0.68771 -0.91634,-2.24709 -0.92773,-3.49248 -0.0493,-1.87671 0.18307,-2.22856 1.28238,-2.21009 1.16377,0.0358 1.12123,-0.32073 -0.31025,-2.70584 -0.83127,-1.5341 -1.75098,-4.54131 -1.92441,-6.72736 -1.01793,-10.62559 -3.87168,-15.94551 -9.45681,-17.51106 -2.62296,-0.7718 -2.78161,-0.95239 -1.90877,-1.89183 1.07067,-1.16251 1.00631,-1.17975 2.92431,0.16239 2.36413,1.73777 2.52062,0.12325 0.44766,-4.50431 -2.85247,-6.35486 -4.38338,-15.32343 -3.24456,-19.57353 0.3796,-1.4167 0.6027,-1.21888 2.34221,2.07699 3.49651,6.52742 10.36923,12.30304 16.48676,13.94223 l 3.02663,0.81098 -2.1996,-2.86701 c -6.15734,-7.93056 -3.75057,-20.26125 4.95613,-25.45135 10.84685,-6.48018 23.82579,-0.31076 25.63591,12.2526 0.83896,5.88435 -2.16641,12.4641 -7.50484,16.41714 l -2.68642,2.04093 2.53451,-0.70126 c 3.57411,-0.97485 9.64278,-5.07732 12.48114,-8.45792 3.36738,-4.06708 7.22963,-12.55681 8.68489,-19.27584 1.01467,-4.55943 1.047,-6.48332 0.32633,-10.74853 -0.48617,-2.82202 -1.48285,-6.0569 -2.09566,-7.11833 -0.67727,-1.07873 -1.33262,-2.49668 -1.48206,-3.22691 -0.42301,-1.76979 0.61997,-1.28327 4.39953,1.86905 z M 334.18821,719.2409 c -0.40987,1.27058 -0.34172,2.04802 0.11371,1.89399 0.37368,-0.10689 1.16153,-1.75934 1.5803,-3.57965 0.64268,-2.6576 0.6178,-3.07838 -0.11365,-1.89396 -0.49916,0.83248 -1.20542,2.43775 -1.58036,3.57962 z" />
  <path
     id="path5993"
     fill="#fbbebe"
     d="m 203.95,542.73188 c -10.75,4.43 -15,18.21 -12.48,29.55 2.52,11.34 10.11,20.79 17.51,29.78 l 20.74,25.3 c 5.73,7 12,14.37 20.74,16.81 12.78,3.57 25.56,-4.57 36.61,-11.93 32.9837,-21.97919 68.24073,-40.33859 105.16,-54.76 3.61,-1.4 3.94445,-2.82 6.91445,-5.32 4.54453,-7.73782 7.65088,-13.96338 7.82555,-22 0.33942,-15.61657 -13.70858,-12.67311 -23.37404,-9.09831 -7.55036,2.79252 -11.97596,1.23831 -16.81596,7.67831 -2.31,3.07 -4,6.58 -6.23,9.7 -5.64,7.84 -14.44,12.69 -23.05,17.07 -20.76023,10.59207 -42.13118,19.94186 -64,28 -4,1.46 -8.51,2.85 -12.28,0.92 -2.31,-1.19 -3.87,-3.44 -5.27,-5.64 -6.37962,-10.04182 -11.45381,-20.85556 -15.1,-32.18 -2.73,-8.5 -4.94,-17.76 -11.5,-23.8 -9.3,-8.56 -26.14,-6.51 -33.11,4 0,0 -8.17,11.95 -3.17,16.95 5,5 10.88,-21.03 10.88,-21.03 z" />
  <path
     id="path5995"
     fill="#fbbebe"
     d="m 764.79,501.35188 c 1.46,3.89 1.5,8.15 1.29,12.3 -0.26,5.06 -1.53,11 -6.23,12.93 -3.06,1.23 -6.84,0.3 -9.56,2.16 -3.3,2.24 -3.14,7.06 -2.63,11 1.41,10.83 3,22.06 8.9,31.22 3.17,4.91 7.46,9 11.81,12.91 8.67,7.82 18.18,15.46 29.57,18.07 a 12.37,12.37 0 0 0 5.7,0.24 11.8,11.8 0 0 0 4.93,-3 c 6.6,-6.06 10,-14.71 14.4,-22.55 3.11,-5.61 6.82,-11 8.57,-17.18 a 30,30 0 0 0 -9.18,-30.27 c -1.95,-1.67 -4.11,-3.07 -6,-4.8 -4.94,-4.48 -7.82,-10.91 -9,-17.47 -1.18,-6.56 -1,-13.31 -0.43,-20 -10,-0.77 -19.93,0.44 -29.69,2.39 -4.34,0.87 -10.45,1.27 -14.38,3.34 -4.42,2.35 0.72,5.36 1.93,8.71 z" />
  <path
     id="path5997"
     opacity="0.1"
     d="m 764.79,501.35188 c 1.46,3.89 1.5,8.15 1.29,12.3 -0.26,5.06 -1.53,11 -6.23,12.93 -3.06,1.23 -6.84,0.3 -9.56,2.16 -3.3,2.24 -3.14,7.06 -2.63,11 1.41,10.83 3,22.06 8.9,31.22 3.17,4.91 7.46,9 11.81,12.91 8.67,7.82 18.18,15.46 29.57,18.07 a 12.37,12.37 0 0 0 5.7,0.24 11.8,11.8 0 0 0 4.93,-3 c 6.6,-6.06 10,-14.71 14.4,-22.55 3.11,-5.61 6.82,-11 8.57,-17.18 a 30,30 0 0 0 -9.18,-30.27 c -1.95,-1.67 -4.11,-3.07 -6,-4.8 -4.94,-4.48 -7.82,-10.91 -9,-17.47 -1.18,-6.56 -1,-13.31 -0.43,-20 -10,-0.77 -19.93,0.44 -29.69,2.39 -4.34,0.87 -10.45,1.27 -14.38,3.34 -4.42,2.35 0.72,5.36 1.93,8.71 z" />
  <path
     id="path6001"
     fill="#fbbebe"
     d="m 758.3,961.26188 c -1.23,13.05 -9.15,24.87 -11,37.43 -12.2,-1.91 -24.21,-4.37 -35.83,-7.17 -1.43,-0.34 -2.85,-0.69 -4.28,-1 6.58,-18 0.85,-38.16 2.59,-57.33 0.17,-1.84 0.41,-3.68 0.73,-5.5 15.07,-5.14 28.68,-12 44.48,-10 0.31,3.2 0.63,6.41 0.94,9.61 q 0.95,9.59 1.88,19.16 a 77.69,77.69 0 0 1 0.49,14.8 z" />
  <path
     id="path6003"
     fill="#fbbebe"
     d="m 862.52,993.90188 c -5.92,1.8 -12,3.37 -18.35,4.66 -1.06,0.22 -2.13,0.43 -3.2,0.63 -6.5,1.22002 -13.08,2.11002 -19.73,2.72002 -0.68,-13.90002 -10,-26.68002 -11.36,-40.95002 a 60.15,60.15 0 0 1 0.11,-10.65 c 0.12,-1.4 0.26,-2.8 0.39,-4.2 l 2.82,-28.77 a 44.36,44.36 0 0 1 6.77,-0.33 c 13,0.31 24.83,5.94 37.71,10.33 a 89.9,89.9 0 0 1 1,18.36 c -0.49,15.62 -3,31.43 2.8,45.76 0.33,0.81 0.69,1.62 1.04,2.44 z" />
  <path
     style="fill-opacity:1;fill:url(#linearGradient8023)"
     id="path6005"
     fill="#f86d70"
     d="m 693.72,774.56188 c 1.75,13.64 -5.22,26.7 -8.24,40.11 -2,8.87 -2.27,18 -2.54,27.1 l -1.58,54.51 c -0.16,5.45 -0.3,11 1.36,16.23 3.34,10.48 13.63,17.56 24.34,20.08 10.71,2.52 21.91,1.24 32.82,-0.2 5.35,-0.71 10.93,-1.54 15.36,-4.63 6.09,-4.25 8.75,-11.82 11.05,-18.88 l 6.49,-19.93 c 7.47,16.82 4.31,35.21 8.79,53.06 a 10.28,10.28 0 0 0 2,4.53 c 1.89,2.1 5,2.43 7.83,2.63 19.6,1.38 39.47,2.75 58.75,-1 5.3,-1 10.83,-2.62 14.49,-6.6 4.26,-4.63 5,-11.44 4.95,-17.73 -0.27,-21.61 -8.08,-42.46 -9.82,-64 -0.75,-9.23 -0.38,-18.51 -0.71,-27.77 a 185.92,185.92 0 0 0 -1.95,-20.8 27.94,27.94 0 0 0 -2.56,-9.1 c -3,-5.6 -9.23,-8.64 -15.13,-11 -45.84,-18.62 -96.26,-18.44 -145.7,-16.61 z" />
  <circle
     id="circle6007"
     fill="#fbbebe"
     r="43"
     cy="463.23187"
     cx="778.59003" />
  <path
     id="path6009"
     fill="#e3e8f4"
     d="m 816.07,538.97188 c -3.19,7 -8.21,14 -15.68,15.78 -6.87,1.65 -14.15,-1.66 -19.21,-6.59 -5.06,-4.93 -8.37,-11.33 -11.88,-17.46 -2.56,-4.48 -5.41,-9 -9.74,-11.82 -5.92,-3.84 -13.56,-3.74 -20.54,-2.61 -6.98,1.13 -13.91,3.15 -21,2.69 -8.83,-0.59 -17.83,-5 -26.16,-2.06 2.7,12.08 1.73,25.36 1.42,37.74 a 17,17 0 0 1 -0.8,5.64 18.22,18.22 0 0 1 -2.91,4.68 l -8,10.31 c 8.58,6.42 16,14.8 19,25.09 1.69,5.86 1.17,12.08 1.11,18.18 -0.19,17.91 3.7,35.75 2.47,53.62 -1.44,20.93 -9.8,40.71 -14.11,61.24 a 160.33,160.33 0 0 0 -2.06,53.6 c 44.82,15.51 91,23.45 138.38,26.05 8.37,0.46 17.41,0.53 24.28,-4.28 5.71,-4 8.91,-10.85 10,-17.75 1.09,-6.9 0.34,-13.92 -0.42,-20.86 q -3.09,-28.15 -6.17,-56.3 c -1.17,-10.68 -2.34,-21.42 -1.58,-32.13 0.57,-8 2.21,-15.85 3.84,-23.68 l 10,-48.06 c 1.43,-6.83 2.87,-13.71 5.7,-20.08 2.32,-5.2 5.53,-10 8.09,-15.06 a 66.51,66.51 0 0 0 6.24,-19.27 12.77,12.77 0 0 0 -0.08,-5.9 c -1.07,-3.28 -4.34,-5.25 -7.39,-6.86 a 214.69,214.69 0 0 0 -59.16,-20.75 c -1.4,5.89 -1.13,11.41 -3.64,16.9 z" />
  <path
     style="fill:#c18b68;fill-opacity:1"
     id="path6011"
     fill="#3f3d56"
     d="m 811.92,510.17188 c 5,-9.58 14.35,-16.3 19.78,-25.66 a 37.93,37.93 0 0 0 1.22,-35 c -1.91,-3.9 -4.5,-7.48 -6,-11.56 -1.67,-4.64 -1.83,-9.75 -3.76,-14.29 -2.65,-6.22 -8.39,-10.7 -14.64,-13.28 -6.25,-2.58 -13,-3.51 -19.73,-4.41 l -22.72,-3.06 c -3.29,-0.44 -6.7,-0.88 -9.9,0 -3.2,0.88 -6.18,3.49 -6.44,6.81 -0.31,3.93 3.14,7.59 2.34,11.45 -0.29,1.36 -1.09,2.74 -0.63,4.06 a 4.12,4.12 0 0 0 2,2 c 5.39,3 11.83,3.27 17.67,5.23 5.84,1.96 11.7,6.88 11.11,13 -0.32,3.29 -2.44,6.71 -1,9.66 1.38,2.73 5,3.23 7.89,4.08 9.35,2.71 15.91,12.85 14.55,22.5 -0.42,3 -1.5,5.87 -1.72,8.88 -0.73,10.54 0.93,13.55 9.54,19.68 z" />
  <path
     id="path6013"
     fill="#be6f72"
     d="m 870.33,555.75188 a 14.59,14.59 0 0 1 -1.07,5.83 c -3.12,6.65 -12.67,6.23 -19,10 -7.88,4.7 -9.62,15.19 -10.34,24.33 -0.82,10.35 -1.38,20.85 0.74,31 2.12,10.15 7.22,20.05 15.74,26 10.37,7.21 24.47,7.46 36.31,3.07 11.84,-4.39 21.73,-12.88 30.31,-22.16 8.14,-8.8 15.43,-18.61 19.8,-29.78 0.77,-2 1.45,-4.12 0.83,-6.12 -0.93,-3 -4.2,-4.36 -6.86,-6 -6.21,-3.75 -10.35,-10.29 -12.5,-17.2 -2.15,-6.91 -2.51,-14.26 -2.58,-21.51 -0.08,-7.53 -0.1,-15.76 -4.9,-21.57 -4.8,-5.81 -13.12,-7.44 -20.7,-7.38 -6.2,0 -23.36,0.59 -27.59,6 -3.47,4.5 2.06,19.05 1.81,25.49 z" />
  <path
     id="path6015"
     opacity="0.1"
     d="m 870.33,555.75188 a 14.59,14.59 0 0 1 -1.07,5.83 c -3.12,6.65 -12.67,6.23 -19,10 -7.88,4.7 -9.62,15.19 -10.34,24.33 -0.82,10.35 -1.38,20.85 0.74,31 2.12,10.15 7.22,20.05 15.74,26 10.37,7.21 24.47,7.46 36.31,3.07 11.84,-4.39 21.73,-12.88 30.31,-22.16 8.14,-8.8 15.43,-18.61 19.8,-29.78 0.77,-2 1.45,-4.12 0.83,-6.12 -0.93,-3 -4.2,-4.36 -6.86,-6 -6.21,-3.75 -10.35,-10.29 -12.5,-17.2 -2.15,-6.91 -2.51,-14.26 -2.58,-21.51 -0.08,-7.53 -0.1,-15.76 -4.9,-21.57 -4.8,-5.81 -13.12,-7.44 -20.7,-7.38 -6.2,0 -23.36,0.59 -27.59,6 -3.47,4.5 2.06,19.05 1.81,25.49 z" />
  <path
     id="path6017"
     fill="#be6f72"
     d="m 817.01,823.93188 a 8.55,8.55 0 0 0 2.08,4.08 8.26,8.26 0 0 0 3.37,1.59 c 32.82,9.63 67.88,5.79 101.86,1.86 -4.65,-14.16 -9.33,-28.48 -10.62,-43.33 -1.07,-12.25 0.13,-25 -4.21,-36.49 -1.28,-3.4 -75.88,12.25 -83.24,13.52 -3.77,0.65 -8.11,0.43 -10.78,3.42 -3.22,3.62 -3.49,12.24 -3.83,16.75 -0.96,13.03 1.73,26.15 5.37,38.6 z" />
  <path
     id="path6019"
     fill="#be6f72"
     d="m 891.74,982.67188 c -6,2.78 -12.19,5.37 -18.6,7.69 q -5.2,1.89 -10.62,3.54 c -5.92,1.8 -12,3.37 -18.35,4.66 q -5.43,-13.77 -10.87,-27.55 c -2.67,-6.76 -5.34,-13.55 -7.57,-20.46 a 128.13,128.13 0 0 1 -3.82,-14.39 102.65,102.65 0 0 1 2.48,-49.77 c 13.86,2.61 27.41,4.31 41.06,6.29 7.29,1 14.6,2.18 22,3.57 q 0.87,7.23 1.58,14.46 1.08,11.16 1.77,22.32 1.53,24.8 0.94,49.64 z" />
  <path
     id="path6021"
     opacity="0.1"
     d="m 891.74,982.67188 c -6,2.78 -12.19,5.37 -18.6,7.69 q -5.2,1.89 -10.62,3.54 c -5.92,1.8 -12,3.37 -18.35,4.66 q -5.43,-13.77 -10.87,-27.55 c -2.67,-6.76 -5.34,-13.55 -7.57,-20.46 a 128.13,128.13 0 0 1 -3.82,-14.39 102.65,102.65 0 0 1 2.48,-49.77 c 13.86,2.61 27.41,4.31 41.06,6.29 7.29,1 14.6,2.18 22,3.57 q 0.87,7.23 1.58,14.46 1.08,11.16 1.77,22.32 1.53,24.8 0.94,49.64 z" />
  <path
     id="path6023"
     fill="#be6f72"
     d="m 968.64,939.34188 c 0.08,5.76 -1.56,11.64 -3.08,17.29 -0.11,0.4 -0.21,0.79 -0.31,1.19 a 16.48,16.48 0 0 1 -8.83,-6.62 18.91,18.91 0 0 1 -2.37,-5.55 q -6.79,4.62 -13.7,9.15 c -15.07,9.9 -31,19.73 -48.61,27.87 -6,2.78 -12.19,5.37 -18.6,7.69 q -2,-7 -3.8,-14.09 a 130.5,130.5 0 0 1 -3.08,-14.79 75.12,75.12 0 0 1 3.32,-33.65 v 0 l 0.45,-1.3 a 73.55,73.55 0 0 1 6.55,-13.79 c 2.49,-4 7.42,-3.33 12.45,-2 2.28,0.59 4.59,1.3 6.69,1.74 13.07,2.74 26.64,-0.09 40,0.66 a 47.81,47.81 0 0 1 18.35,4.67 c 6.43,3.23 11.61,8.17 13.64,15 a 22.39,22.39 0 0 1 0.66,3 26.56,26.56 0 0 1 0.27,3.53 z" />
  <path
     id="path6025"
     fill="#be6f72"
     d="m 728.06,478.79188 c -20.65,-20 -44.12,-36.95 -68.13,-52.8 a 187.11,187.11 0 0 1 -18,-12.83 c -6,-5 -11.23,-10.87 -17.6,-15.37 -6.37,-4.5 -14.25,-7.59 -21.9,-6.11 -7.65,1.48 -14.45,8.8 -13.33,16.46 1,6.74 7.06,11.36 12.66,15.23 10.6,7.33 21.25,14.68 32.78,20.43 a 102.74,102.74 0 0 1 11.63,6.2 c 7.18,4.84 12.41,12 17.84,18.73 a 260.43,260.43 0 0 0 74,63 c 0.34,0.2 12.17,-25.33 11.67,-28.64 -1.1,-7.61 -16.18,-19.02 -21.62,-24.3 z" />
  <path
     id="path6027"
     fill="#3f3d56"
     d="m 904.68,801.95188 c -15.94,1 -31.23,6.38 -46.82,9.81 -15.59,3.43 -32.53,4.76 -47,-2 l 8.8,60.09 c 0.49,3.34 1,6.76 0.27,10.05 -0.67,3.14 -2.41,6.1 -2.26,9.31 0.23,5.08 5,8.65 9.49,11 a 84.85,84.85 0 0 0 42.4,9.77 c -1.09,4.4 -2.45,8.75 -3.55,13.15 7.35,7.89 19.37,8.42 29.86,10.92 8,1.89 15.5,5.17 23.34,7.48 a 99.63,99.63 0 0 0 29.21,4.07 c 6.67,-0.07 13.74,-1 18.92,-5.16 6.37,-5.13 8.35,-13.85 9.73,-21.91 0.77,-4.5 1.48,-9.06 1,-13.6 -0.52,-5.22 -2.54,-10.16 -4.54,-15 l -13.7,-33.25 c -2.49,-6 -5,-12.09 -8,-17.88 -9.8,-18.73 -26.06,-38.16 -47.15,-36.85 z" />
  <path
     style="fill:url(#linearGradient7972)"
     id="path6029"
     fill="#6c63ff"
     d="m 916.88,594.33188 a 15,15 0 0 1 15.7,-9.57 c 4,0.56 7.57,2.75 11,4.89 l 19.1,11.92 a 83.26,83.26 0 0 1 9.09,6.26 c 13.17,10.92 18.25,28.87 19.7,45.92 1.45,17.05 0,34.39 3.39,51.16 -8.06,6.68 -17,12.33 -25.06,19 -4.22,3.49 -8.49,7 -11.69,11.49 -2.54,3.53 -4.35,7.57 -7,11 a 26.46,26.46 0 0 1 -17.53,9.74 c 4.37,2.54 6.82,7.47 8,12.38 1.18,4.91 1.5,10 2.81,14.91 1.8,6.67 5.53,12.76 6.76,19.56 0.86,4.69 0.48,9.5 0.79,14.26 1.56,24.63 20.89,46.16 19.64,70.8 a 107.36,107.36 0 0 1 -25.66,-13.49 c -3.56,-2.55 -7,-5.31 -10.37,-8.06 l -25.47,-20.65 c -12.39,-10 -24.9,-20.22 -34.75,-32.78 -6.18,-7.88 -11.22,-16.6 -17.42,-24.46 -6.2,-7.86 -13.83,-15 -23.3,-18.3 -1.39,2.09 -3.86,3.54 -5.25,5.63 a 4.18,4.18 0 0 0 -0.58,1.08 4.73,4.73 0 0 0 0.33,2.76 57.46,57.46 0 0 1 2,12.39 l 0.63,7.52 a 25.62,25.62 0 0 1 0,6 c -0.95,6.43 -6.91,11.42 -13.34,12.42 a 5.8,5.8 0 0 1 -2.81,-0.09 c -1.79,-0.6 -2.78,-2.49 -3.32,-4.29 -2.53,-8.54 1.35,-17.55 1.66,-26.44 a 63.53,63.53 0 0 0 -0.23,-6.76 l -0.6,-8.87 c -5.81,-1.21 -9.15,-7.45 -10.69,-13.18 -4.16,-15.47 -8.35,-31.48 -5.94,-47.32 0.64,-4.24 1.76,-8.54 1,-12.78 -1,-5.67 -5.08,-10.27 -7.23,-15.61 -7,-17.41 7.87,-36.31 6.49,-55 -0.58,-7.85 -5.56,-14.67 -8.56,-21.95 a 62,62 0 0 0 -6,-12.11 c -3.06,-4.37 -7.19,-7.87 -11.2,-11.39 a 427.74,427.74 0 0 1 -35.18,-34.66 26,26 0 0 1 -15.15,-6.94 c -2.64,-2.5 -4.81,-5.8 -4.88,-9.43 -0.07,-3.63 2.61,-7.44 6.24,-7.63 2.12,-0.11 4.1,0.94 6.17,1.4 6.48,1.42 13,-3.35 15.89,-9.34 2.89,-5.99 2.89,-12.88 2.84,-19.52 a 18.72,18.72 0 0 1 17.33,6.07 c 4.47,4.86 7.38,10.92 10.9,16.5 a 25.57,25.57 0 0 0 5.44,6.57 c 4.81,3.82 11.74,4.54 15.94,9 2.13,2.28 3.31,5.3 5.26,7.74 5.48,6.87 15.51,7.71 23,12.23 7.49,4.52 12.7,12.78 21,15.46 3,1 6.27,1.13 9.24,2.24 6.86,2.55 11.05,9.84 12,17.09 0.95,7.25 -0.67,14.58 -2.31,21.72 l -3.85,16.71 c -0.85,3.7 -1.5,8.15 1.23,10.79 a 11.12,11.12 0 0 0 4.43,2.23 c 7,2.28 14.8,4.52 21.38,1.29 3.11,-1.54 5.55,-4.14 7.78,-6.8 9.76,-11.5 16.25,-26.56 21.21,-40.71 z" />
  <path
     id="path6031"
     fill="#be6f72"
     d="m 995.81,934.38188 c -1.38,9.15 -6.42,18.15 -14.67,22.34 a 21,21 0 0 1 -15.89,1.1 16.48,16.48 0 0 1 -8.83,-6.62 18.91,18.91 0 0 1 -2.37,-5.55 c 0,-0.1 -0.05,-0.21 -0.07,-0.31 a 44,44 0 0 1 -0.93,-10.77 140.5,140.5 0 0 1 1,-16.79 90.91,90.91 0 0 1 2.76,-13.88 c 1.86,-6.49 4.54,-12.74 7,-19 1.28,-3.3 2.51,-6.61 3.52,-10 v 0 c 0.61,-2 1.13,-4.06 1.55,-6.14 l 0.15,-0.75 c 0.08,-0.42 0.15,-0.84 0.22,-1.26 1,-5.7 1.29,-11.6 3.86,-16.75 6,-12.09 17.68,-9 19.46,2.15 a 19.64,19.64 0 0 1 0.23,2.61 c 0.27,14.11 -5.33,27.9 -2.77,42.06 a 98,98 0 0 0 2.72,10.22 c 0.9,3.09 1.71,6.22 2.33,9.39 a 53.37,53.37 0 0 1 0.73,17.95 z" />
  <path
     style="fill:url(#linearGradient7972)"
     id="path6033"
     fill="#6c63ff"
     d="m 1001.31,777.48188 c 0.27,5.78 0,11.63 1.16,17.3 2.71,13.4 13,25.26 11.86,38.88 -0.28,3.32 -1.51,6.89 -4.41,8.53 -2.9,1.64 -7.7,1.51 -8.65,4.81 -0.27,0.92 -0.13,1.92 -0.43,2.83 -0.63,1.94 -3,2.77 -5,2.72 -2,-0.05 -4,-0.71 -6.07,-0.54 -7.25,0.61 -9.91,10.31 -16.37,13.64 -4.35,2.24 -10,1 -13.59,-2.31 -3.59,-3.31 -5.16,-8.47 -4.88,-13.36 0.21,-3.69 1.38,-7.25 2,-10.89 1.13,-6.49 0.54,-13.14 -0.05,-19.7 -0.87,-9.61 -1.77,-19.34 -4.93,-28.45 -1.49,-4.3 -3.47,-8.41 -4.76,-12.77 -1.84,-6.17 -2.26,-12.66 -2.45,-19.09 -0.39,-13.53 0.54,-28 8.62,-38.88 6.07,-8.16 14.77,-14.79 21.64,-22.34 4.3,-4.73 5.54,-6.21 10.29,-2.2 3.91,3.29 8,7.83 8.44,12.29 1.2,11.43 0,22.67 2.14,34.31 2.14,11.64 4.88,23.27 5.44,35.22 z" />
  <circle
     id="circle6035"
     fill="#be6f72"
     r="51"
     cy="506.23187"
     cx="897.59003" />
  <path
     id="path6037"
     fill="#3f3d56"
     d="m 944.29,603.79188 c 1.12,-1.57 2.45,-3.26 4.35,-3.59 a 7.59,7.59 0 0 1 4.14,0.87 l 13.43,5.61 a 43.84,43.84 0 0 0 6.24,-19.76 c 0.28,-4.29 -0.06,-8.64 0.76,-12.86 1.22,-6.26 4.93,-11.87 5.79,-18.19 0.68,-5.1 -0.55,-10.23 -1.29,-15.32 -2.28,-15.72 0.17,-31.76 -1.14,-47.59 -1.31,-15.83 -7.66,-32.79 -21.78,-40.06 -4,-2 -8.31,-3.2 -12.47,-4.78 -9.27,-3.53 -17.58,-9.18 -26.74,-13 -9.16,-3.82 -19.92,-5.57 -28.8,-1.18 -8.88,4.39 -14.05,16.74 -8.28,24.8 1.9,2.65 4.68,4.53 7.34,6.44 5.41,3.87 10.93,8.65 12.18,15.19 2.24,11.77 -10,21 -13.45,32.51 a 27.64,27.64 0 0 0 -0.33,13.79 c 1.49,6.82 5.13,13.26 5,20.24 -0.1,7.65 -4.68,14.58 -5.54,22.19 -0.31,2.79 -0.12,5.62 -0.47,8.4 a 43.35,43.35 0 0 1 -3.23,10.63 c -8,20 -16.11,40.21 -28,58.19 a 77.07,77.07 0 0 0 36.63,-8.56 60.54,60.54 0 0 1 -9.17,21.54 69.4,69.4 0 0 0 28.66,-10 93.11,93.11 0 0 1 -9.1,21.61 c 0.34,-0.58 6.63,-2 7.79,-2.66 a 13.57,13.57 0 0 0 5.5,-5.87 c 3.4,-6.08 5.52,-13.41 8.67,-19.73 a 287.33,287.33 0 0 1 23.31,-38.86 z" />
  <g
     transform="translate(0,290.04188)"
     style="fill:#008080"
     id="g6061"
     opacity="0.2">
    <path
       style="fill:#008080"
       id="path6047"
       fill="#3f3d56"
       transform="translate(-32.42,-93.56)"
       d="M 581.37,749.79 A 19,19 0 0 1 581,753 q -10.44,-1.66 -21,-3 c 0,-0.28 0,-0.57 0,-0.86 a 16.88,16.88 0 0 1 2.5,-8.48 c 2.06,-3.26 5.19,-5.3 8.64,-5.19 3.45,0.11 6.44,2.34 8.29,5.71 a 16.87,16.87 0 0 1 1.94,8.61 z" />
    <ellipse
       style="fill:#008080"
       id="ellipse6049"
       fill="#3f3d56"
       transform="rotate(-88.19,506.75518,702.28962)"
       ry="10.7"
       rx="14.01"
       cy="732.33002"
       cx="571.21002" />
    <ellipse
       style="fill:#008080"
       id="ellipse6051"
       fill="#3f3d56"
       transform="rotate(-88.19,507.29774,685.16649)"
       ry="10.7"
       rx="14.01"
       cy="715.21002"
       cx="571.75" />
    <ellipse
       style="fill:#008080"
       id="ellipse6053"
       fill="#3f3d56"
       transform="rotate(-88.19,507.8353,668.04853)"
       ry="10.7"
       rx="14.01"
       cy="698.09003"
       cx="572.28998" />
    <ellipse
       style="fill:#008080"
       id="ellipse6055"
       fill="#3f3d56"
       transform="rotate(-88.19,508.37785,650.92541)"
       ry="10.7"
       rx="14.01"
       cy="680.96997"
       cx="572.83002" />
    <path
       style="fill:#008080"
       id="path6057"
       fill="#6c63ff"
       transform="translate(-32.42,-93.56)"
       d="m 536.47,562.55 a 49.66,49.66 0 0 1 -3.8,-6 l 28.26,-3.73 -30.42,-0.73 a 51.38,51.38 0 0 1 0.31,-40.64 l 40.12,22.45 -36.75,-28.84 a 51.28,51.28 0 1 1 82.84,60 50.8,50.8 0 0 1 5.55,9.53 l -37.09,17.8 39.33,-11.83 a 51.34,51.34 0 0 1 -9.82,47.91 51.28,51.28 0 1 1 -80.56,-2.54 51.28,51.28 0 0 1 2,-63.38 z" />
    <path
       style="fill:#008080"
       id="path6059"
       opacity="0.1"
       transform="translate(-32.42,-93.56)"
       d="m 627,597.13 a 51,51 0 0 1 -12,31.34 51.28,51.28 0 1 1 -80.56,-2.54 C 527.87,617 627.18,591.38 627,597.13 Z" />
  </g>
  <g
     style="fill:url(#linearGradient8017);fill-opacity:1"
     transform="matrix(0.04155815,-0.01937887,-0.01937887,-0.04155815,645.92875,752.61255)"
     fill="#000000"
     stroke="none"
     id="g7852">
    <path
       style="fill:url(#linearGradient8017);fill-opacity:1"
       d="m 4356,12768 c -3,-13 -8,-102 -11,-198 -18,-531 -83,-798 -305,-1240 -101,-202 -177,-336 -548,-961 -296,-500 -596,-1020 -772,-1339 -62,-113 -128,-226 -147,-253 -18,-26 -33,-49 -33,-52 0,-9 -92,-209 -147,-320 -30,-60 -64,-132 -75,-160 -10,-27 -26,-60 -33,-71 -13,-20 -17,-21 -52,-9 -48,17 -52,14 -98,-99 l -37,-89 39,-33 c 21,-18 41,-33 45,-34 4,0 6,-26 6,-57 -1,-49 6,-76 45,-168 l 48,-110 -4,-170 c -2,-94 -12,-226 -23,-295 -10,-69 -17,-157 -16,-196 2,-54 -1,-74 -13,-84 -8,-7 -15,-19 -15,-27 0,-24 -40,-95 -111,-194 -86,-121 -109,-169 -109,-238 0,-46 7,-68 46,-140 26,-47 70,-120 99,-161 75,-108 104,-170 114,-247 5,-37 11,-203 13,-368 3,-340 6,-325 -80,-417 l -46,-50 15,-58 15,-58 -32,-16 -33,-15 16,-53 c 21,-71 70,-168 86,-168 6,0 19,4 26,9 24,15 47,-4 71,-61 12,-29 51,-119 86,-199 35,-80 64,-153 64,-163 0,-9 7,-16 16,-16 11,0 14,-5 10,-16 -4,-9 0,-24 7,-33 8,-9 72,-119 142,-246 233,-419 414,-731 880,-1520 306,-517 393,-672 488,-861 136,-272 207,-468 252,-693 36,-187 45,-294 45,-568 V 5 l 20,30 c 11,17 27,60 36,95 27,108 4,527 -39,711 -11,45 -12,140 -6,480 10,497 29,3356 29,4223 0,559 1,600 18,612 16,11 17,50 20,508 3,419 1,499 -12,523 -12,25 -13,257 -4,1838 6,1064 7,2039 2,2365 -9,550 -9,556 13,665 24,120 43,355 43,535 0,92 -4,124 -20,158 -22,48 -28,51 -34,20 z m -28,-2908 c 0,-2049 -6,-2584 -32,-2700 -14,-65 -16,-132 -12,-525 2,-247 9,-628 15,-845 17,-633 -11,-4556 -35,-4729 -6,-44 -6,-44 -48,85 -101,306 -228,554 -697,1360 -247,425 -411,716 -554,984 -107,200 -335,661 -335,677 0,6 63,71 140,143 137,129 180,181 180,213 0,9 -27,72 -59,139 -114,238 -171,474 -187,779 l -7,126 57,26 c 48,22 56,29 48,44 -5,10 -77,146 -160,303 -83,157 -163,311 -177,343 l -25,58 77,35 c 107,47 105,45 136,95 51,83 58,149 51,494 -10,491 23,680 183,1047 36,84 67,170 70,198 8,68 -21,123 -143,275 -53,66 -108,134 -121,152 l -25,32 141,283 c 226,457 389,753 806,1468 440,755 588,1053 677,1355 l 23,80 7,-85 c 3,-47 6,-906 6,-1910 z"
       id="path7850" />
  </g>
  <path
     d="m 627.71073,414.30245 c 15.78774,20.09536 -13.57403,28.04285 -23.96476,19.56428 -9.46884,-7.72635 -6.95093,-8.86962 -13.40245,-21.26876 -7.3879,-14.19875 9.3431,-37.76852 21.45772,-25.8561 6.33593,6.23017 7.45997,16.80564 15.90949,27.56058 z"
     style="opacity:1;fill:#da8686;fill-opacity:1;stroke:none;stroke-width:4"
     id="path7878" />
  <path
     d="m 534.78663,403.57201 c -1.81451,11.74079 -2.21198,34.39523 -19.71839,21.51097 -8.77083,-6.4551 -19.71839,-9.63079 -19.71839,-21.51097 0,-11.88018 8.82822,-21.51097 19.71839,-21.51097 10.89017,0 24.24529,-7.78038 19.71839,21.51097 z"
     style="opacity:1;fill:#d28181;fill-opacity:1;stroke:none;stroke-width:4"
     id="path7976" />
</svg>
