<?xml version="1.0" encoding="UTF-8" standalone="no"?>
<svg
   xmlns:i="&amp;#38;ns_ai;"
   xmlns:dc="http://purl.org/dc/elements/1.1/"
   xmlns:cc="http://creativecommons.org/ns#"
   xmlns:rdf="http://www.w3.org/1999/02/22-rdf-syntax-ns#"
   xmlns:svg="http://www.w3.org/2000/svg"
   xmlns="http://www.w3.org/2000/svg"
   xmlns:xlink="http://www.w3.org/1999/xlink"
   version="1.1"
   id="Layer_1"
   x="0px"
   y="0px"
   viewBox="0 0 109.57 144.21">
<style
   type="text/css"
   id="style1464">
	.st0{fill:#3FA391;}
	.st1{fill:#254B4B;}
	.st2{fill:#FFFFFF;}
	.st3{fill:#FFC749;}
	.st4{opacity:0.17;fill:#254B4B;}
	.st5{fill:#92D3C8;}
	.st6{clip-path:url(#SVGID_2_);fill:#FFFFFF;}
	.st7{clip-path:url(#SVGID_2_);}
	.st8{fill:#FDD68D;}
	.st9{fill:#385656;}
	.st10{fill:#4A6162;}
	.st11{fill:#5B6F6F;}
	.st12{fill:#6D7D7E;}
	.st13{fill:#808D8E;}
	.st14{fill:#959FA0;}
	.st15{fill:#ABB2B3;}
	.st16{fill:#C2C7C7;}
	.st17{fill:#DCDEDE;}
	.st18{fill:#ABD3CB;}
	.st19{clip-path:url(#SVGID_4_);}
</style>
<switch
   id="switch2892"
   transform="translate(-302.74,-340.64)">
	<g
   style="opacity:1"
   i:extraneous="self"
   id="g2890">




		<g
   id="g2838">
			<path
   class="st0"
   d="m 357.67,358.91 c 0,0 31.4,10.6 50,10.6 0.54,0 1.07,-0.01 1.59,-0.03 l -1.73,41.19 c 0,0 1.32,44.44 -49.86,71.39 -51.18,-26.95 -50.14,-71.39 -50.14,-71.39 l -1.73,-41.19 c 0.52,0.02 1.05,0.03 1.59,0.03 18.61,0 50.28,-10.6 50.28,-10.6"
   id="path2640" />
			<g
   id="g2828">
				<g
   id="g2644">
					<path
   class="st1"
   d="m 357.67,484.85 c 51.18,-26.07 49.86,-69.05 49.86,-69.05 l 1.73,-39.84 c -18.33,0.63 -51.59,-10.22 -51.59,-10.22 0,0 -33.53,10.85 -51.86,10.22 l 1.73,39.84 c -0.01,0 -1.05,42.98 50.13,69.05 z"
   id="path2642" />
				</g>
				<g
   id="g2650">
					<path
   class="st2"
   d="m 357.67,478.02 c 51.18,-26.07 49.86,-69.05 49.86,-69.05 l 1.73,-39.84 c -18.33,0.63 -51.59,-10.22 -51.59,-10.22 0,0 -33.53,10.85 -51.86,10.22 l 1.73,39.84 c -0.01,0 -1.05,42.98 50.13,69.05 z"
   id="path2646"
   style="fill:#008080" />
					<path
   class="st1"
   d="m 357.67,358.91 c 0,0 31.4,10.25 50,10.25 0.54,0 1.07,-0.01 1.59,-0.03 l -1.73,39.84 c 0,0 1.32,42.98 -49.86,69.05 -51.18,-26.07 -50.14,-69.05 -50.14,-69.05 l -1.73,-39.84 c 0.52,0.02 1.05,0.03 1.59,0.03 18.61,0 50.28,-10.25 50.28,-10.25 m 0,-3.08 -0.91,0.29 c -0.31,0.1 -31.44,10.11 -49.37,10.11 -0.51,0 -1.01,-0.01 -1.49,-0.02 l -3.16,-0.11 0.14,3.16 1.72,39.75 c -0.01,1.28 0.06,12.05 6.12,25.88 5.79,13.21 18.4,31.87 45.61,45.73 l 1.33,0.68 1.33,-0.68 c 27.21,-13.86 39.75,-32.52 45.48,-45.74 5.98,-13.8 6,-24.56 5.98,-25.88 l 1.72,-39.75 0.14,-3.16 -3.16,0.11 c -0.48,0.02 -0.98,0.02 -1.49,0.02 -17.91,0 -48.78,-10 -49.09,-10.11 z"
   id="path2648" />
				</g>
				<g
   id="g2688">
					<g
   id="g2680">
						<g
   id="g2656">
							<path
   class="st2"
   d="m 350.87,464.7 v -96.6 h 13.33 v 96.6 0 l -6.66,6.11 z"
   id="path2652"
   style="fill:#81cabe;fill-opacity:1" />
							<path
   class="st1"
   d="m 362.3,369.98 v 93.88 l -4.77,4.38 -4.77,-4.38 v -93.88 h 9.54 m 1.89,-1.88 h -13.33 v 96.6 l 6.66,6.11 6.66,-6.11 v -96.6 z"
   id="path2654" />
						</g>
						<g
   id="g2670">
							<defs
   id="defs2659">
								<path
   id="SVGID_1_"
   d="m 352.7,463.8 h 0.4 l -0.39,-93.09 4.69,4.48 4.88,-4.48 v 93.17 0 l -4.76,4.42 z" />
							</defs>
							<clipPath
   id="SVGID_4_">
								<use
   xlink:href="#SVGID_1_"
   style="overflow:visible"
   id="use2661"
   x="0"
   y="0"
   width="100%"
   height="100%" />
							</clipPath>
							<g
   class="st19"
   clip-path="url(#SVGID_4_)"
   id="g2668">
								<g
   id="g2666">
									<path
   class="st2"
   d="m 357.57,484.54 c -0.42,0 -3.24,-10.4 -3.54,-11.34 -0.33,-1.02 -2.93,-11.27 -3.77,-11.27 0.42,0 3.24,10.4 3.54,11.34 0.33,1.01 2.93,11.27 3.77,11.27 z"
   id="path2664" />
								</g>
							</g>
						</g>
						<g
   id="g2676">
							<path
   class="st1"
   d="m 353.58,342.22 v 24.55 0 h 7.89 v -21.06 c 0,-1.93 -1.56,-3.49 -3.49,-3.49 z"
   id="path2672" />
							<path
   class="st2"
   d="m 357.98,342.22 c 1.93,0 3.49,1.56 3.49,3.49 v 21.06 h -7.89 v -24.55 h 4.4 m 0,-1.58 h -4.4 -1.58 v 1.58 24.55 1.58 h 1.58 7.89 1.58 v -1.58 -21.06 c 0.01,-2.79 -2.27,-5.07 -5.07,-5.07 z"
   id="path2674" />
						</g>
						<path
   class="st1"
   d="m 357.53,365.07 c -6.77,0 -13.54,0.9 -20.12,2.7 0,0.83 0,1.66 0,2.48 0,1.61 1.1,2.65 2.59,2.65 0.25,0 0.5,-0.03 0.77,-0.09 5.52,-1.24 11.14,-1.87 16.77,-1.87 5.62,0 11.25,0.62 16.77,1.87 0.27,0.06 0.52,0.09 0.77,0.09 1.49,0 2.59,-1.04 2.59,-2.65 0,-0.83 0,-1.66 0,-2.48 -6.6,-1.8 -13.37,-2.7 -20.14,-2.7 z"
   id="path2678" />
					</g>
					<g
   id="g2686">

							<rect
   x="354.45001"
   y="365.01999"
   transform="matrix(0.7071,0.7071,-0.7071,0.7071,365.0006,-144.9993)"
   class="st2"
   width="6.1500001"
   height="6.1500001"
   id="rect2682"
   style="fill:#ffc747;fill-opacity:1" />
						<path
   class="st1"
   d="m 357.53,363.74 4.35,4.35 -4.35,4.35 -4.35,-4.35 4.35,-4.35 m 0,-2.76 -1.38,1.38 -4.35,4.35 -1.38,1.38 1.38,1.38 4.35,4.35 1.38,1.38 1.38,-1.38 4.35,-4.35 1.38,-1.38 -1.38,-1.38 -4.35,-4.35 z"
   id="path2684" />
					</g>
				</g>
				<g
   id="g2826"
   style="display:inline">
					<g
   id="g2756"
   style="display:inline">
						<g
   id="g2694">
							<path
   class="st1"
   d="m 336.65,412.87 -5.91,5.81 v -28.5 h 5.91 z m 4.57,5.35 4.45,-4.38 v -25.71 l -4.29,-4.28 h -17.71 v 54.85 c 2.09,3.53 4.72,7.17 8.04,10.75 v -21.88 l 3.04,-2.99 2.62,7.2 v 24.71 c 2.44,1.94 5.13,3.82 8.09,5.62 v -30.33 z"
   id="path2690" />
							<path
   class="st1"
   d="m 331.72,391.16 h 3.95 v 21.3 l -3.95,3.89 z m 9.66,-7.31 4.29,4.29 v 25.71 l -4.45,4.38 4.25,13.56 v 30.33 c -2.97,-1.8 -5.66,-3.68 -8.09,-5.62 v -24.71 l -2.62,-7.2 -3.04,2.99 v 21.88 c -3.32,-3.58 -5.95,-7.22 -8.04,-10.75 v -54.85 h 17.7 m -10.64,34.82 5.91,-5.81 v -22.68 h -5.91 v 28.49 m 10.64,-35.8 h -17.71 l -0.98,0.98 v 54.85 l 0.14,0.5 c 2.29,3.86 5.03,7.54 8.17,10.92 l 1.69,-0.66 V 428 l 1.66,-1.64 2.04,5.61 v 24.54 l 0.37,0.76 c 2.53,2.01 5.29,3.93 8.2,5.69 l 1.48,-0.83 V 431.8 l -0.04,-0.29 -4.07,-13 4.02,-3.96 0.29,-0.7 v -25.71 l -0.29,-0.69 -4.29,-4.28 z"
   id="path2692" />
						</g>
						<g
   id="g2700">
							<path
   class="st9"
   d="m 336.36,412.32 -5.91,5.81 v -28.5 h 5.91 z m 4.47,5.35 4.45,-4.38 v -25.71 l -4.29,-4.28 h -17.71 v 54.85 c 2.09,3.53 4.72,7.17 8.04,10.75 v -21.88 l 3.04,-2.99 2.62,7.2 v 24.71 c 2.44,1.94 5.13,3.82 8.09,5.62 v -30.33 z"
   id="path2696" />
							<path
   class="st1"
   d="m 331.52,390.71 h 3.76 v 21.16 l -3.76,3.7 z m 9.47,-7.41 4.29,4.28 v 25.71 l -4.45,4.38 4.25,13.56 v 30.33 c -2.97,-1.8 -5.66,-3.68 -8.09,-5.62 v -24.71 l -2.62,-7.2 -3.04,2.99 v 21.88 c -3.32,-3.58 -5.95,-7.22 -8.04,-10.75 V 383.3 h 17.7 m -10.54,34.83 5.91,-5.81 v -22.68 h -5.91 v 28.49 m 10.54,-35.91 h -17.71 l -1.07,1.07 v 54.85 l 0.15,0.55 c 2.29,3.87 5.04,7.55 8.18,10.94 l 1.86,-0.73 v -21.43 l 1.53,-1.5 1.99,5.45 v 24.52 l 0.4,0.84 c 2.53,2.02 5.3,3.93 8.21,5.7 l 1.63,-0.92 v -30.33 l -0.05,-0.32 -4.05,-12.94 3.98,-3.92 0.32,-0.77 v -25.71 l -0.31,-0.76 -4.29,-4.28 z"
   id="path2698" />
						</g>
						<g
   id="g2706">
							<path
   class="st10"
   d="m 336.06,411.76 -5.91,5.81 v -28.5 h 5.91 z m 4.38,5.35 4.45,-4.38 v -25.71 l -4.29,-4.28 h -17.7 v 54.85 c 2.09,3.53 4.72,7.17 8.04,10.75 v -21.88 l 3.04,-2.99 2.62,7.2 v 24.71 c 2.44,1.94 5.13,3.82 8.09,5.62 v -30.33 z"
   id="path2702" />
							<path
   class="st1"
   d="m 331.33,390.25 h 3.56 v 21.02 l -3.56,3.51 z m 9.27,-7.51 4.29,4.28 v 25.71 l -4.45,4.38 4.25,13.56 V 461 c -2.97,-1.8 -5.66,-3.68 -8.09,-5.62 v -24.71 l -2.62,-7.2 -3.04,2.99 v 21.88 c -3.32,-3.58 -5.95,-7.22 -8.04,-10.75 v -54.85 h 17.7 m -10.44,34.83 5.91,-5.81 v -22.68 h -5.91 v 28.49 m 10.44,-36 h -17.7 l -1.17,1.17 v 54.85 l 0.16,0.6 c 2.29,3.88 5.05,7.56 8.19,10.95 l 2.03,-0.8 v -21.39 l 1.39,-1.37 1.93,5.3 v 24.5 l 0.44,0.92 c 2.54,2.02 5.3,3.94 8.22,5.7 l 1.78,-1 v -30.33 l -0.05,-0.35 -4.04,-12.88 3.94,-3.87 0.35,-0.83 v -25.71 l -0.34,-0.83 -4.29,-4.28 z"
   id="path2704" />
						</g>
						<g
   id="g2712">
							<path
   class="st11"
   d="m 335.77,411.21 -5.91,5.81 v -28.5 h 5.91 z m 4.28,5.35 4.45,-4.38 v -25.71 l -4.29,-4.28 H 322.5 v 54.85 c 2.09,3.53 4.72,7.17 8.04,10.75 v -21.88 l 3.04,-2.99 2.62,7.2 v 24.71 c 2.44,1.94 5.13,3.82 8.09,5.62 v -30.33 z"
   id="path2708" />
							<path
   class="st1"
   d="m 331.13,389.79 h 3.37 v 20.88 l -3.37,3.32 z m 9.08,-7.6 4.29,4.28 v 25.71 l -4.45,4.38 4.25,13.56 v 30.33 c -2.97,-1.8 -5.66,-3.68 -8.09,-5.62 v -24.71 l -2.62,-7.2 -3.04,2.99 v 21.88 c -3.32,-3.58 -5.95,-7.22 -8.04,-10.75 v -54.85 h 17.7 m -10.34,34.83 5.91,-5.81 v -22.68 h -5.91 v 28.49 m 10.34,-36.1 H 322.5 l -1.27,1.27 v 54.85 l 0.18,0.65 c 2.3,3.88 5.06,7.57 8.21,10.97 l 2.2,-0.86 v -21.35 l 1.25,-1.23 1.87,5.14 v 24.49 l 0.48,0.99 c 2.54,2.02 5.31,3.94 8.23,5.71 l 1.93,-1.08 v -30.33 l -0.06,-0.38 -4.02,-12.82 3.89,-3.83 0.38,-0.9 V 386.5 l -0.37,-0.9 -4.29,-4.28 z"
   id="path2710" />
						</g>
						<g
   id="g2718">
							<path
   class="st12"
   d="m 335.48,410.65 -5.91,5.81 v -28.5 h 5.91 z m 4.18,5.35 4.45,-4.38 v -25.71 l -4.29,-4.28 h -17.71 v 54.85 c 2.09,3.53 4.72,7.17 8.04,10.75 v -21.88 l 3.04,-2.99 2.62,7.2 v 24.71 c 2.44,1.94 5.13,3.82 8.09,5.62 v -30.33 z"
   id="path2714" />
							<path
   class="st1"
   d="m 330.94,389.34 h 3.17 v 20.74 l -3.17,3.12 z m 8.88,-7.71 4.29,4.28 v 25.71 l -4.45,4.38 4.25,13.56 v 30.33 c -2.97,-1.8 -5.66,-3.68 -8.09,-5.62 v -24.71 l -2.62,-7.2 -3.04,2.99 v 21.88 c -3.32,-3.58 -5.95,-7.22 -8.04,-10.75 v -54.85 h 17.7 m -10.25,34.84 5.91,-5.81 v -22.68 h -5.91 v 28.49 m 10.25,-36.2 h -17.71 l -1.37,1.37 v 54.85 l 0.19,0.7 c 2.3,3.89 5.06,7.58 8.22,10.99 l 2.37,-0.93 v -21.31 l 1.11,-1.1 1.81,4.98 v 24.47 l 0.52,1.07 c 2.54,2.02 5.32,3.95 8.24,5.72 l 2.07,-1.17 v -30.33 l -0.06,-0.41 -4,-12.77 3.85,-3.79 0.41,-0.97 v -25.71 l -0.4,-0.97 -4.29,-4.28 z"
   id="path2716" />
						</g>
						<g
   id="g2724">
							<path
   class="st13"
   d="m 335.19,410.1 -5.91,5.81 v -28.5 h 5.91 z m 4.08,5.35 4.45,-4.38 v -25.71 l -4.29,-4.28 h -17.71 v 54.85 c 2.09,3.53 4.72,7.17 8.04,10.75 V 424.8 l 3.04,-2.99 2.62,7.2 v 24.71 c 2.44,1.94 5.13,3.82 8.09,5.62 v -30.33 z"
   id="path2720" />
							<path
   class="st1"
   d="m 330.74,388.88 h 2.98 v 20.61 l -2.98,2.93 z m 8.69,-7.8 4.29,4.28 v 25.71 l -4.45,4.38 4.25,13.56 v 30.33 c -2.97,-1.8 -5.66,-3.68 -8.09,-5.62 v -24.71 l -2.62,-7.2 -3.04,2.99 v 21.88 c -3.32,-3.58 -5.95,-7.22 -8.04,-10.75 v -54.85 h 17.7 m -10.15,34.83 5.91,-5.81 v -22.68 h -5.91 v 28.49 m 10.15,-36.29 h -17.71 l -1.46,1.46 v 54.85 l 0.2,0.75 c 2.3,3.89 5.07,7.6 8.23,11 l 2.54,-1 v -21.27 l 0.98,-0.96 1.76,4.82 v 24.45 l 0.55,1.15 c 2.55,2.03 5.32,3.95 8.25,5.73 l 2.22,-1.25 v -30.33 l -0.07,-0.44 -3.98,-12.71 3.81,-3.75 0.44,-1.04 v -25.71 l -0.43,-1.04 -4.29,-4.28 z"
   id="path2722" />
						</g>
						<g
   id="g2730">
							<path
   class="st14"
   d="m 334.89,409.54 -5.91,5.81 v -28.5 h 5.91 z m 3.99,5.35 4.45,-4.38 V 384.8 l -4.29,-4.28 h -17.71 v 54.85 c 2.09,3.53 4.72,7.17 8.04,10.75 v -21.88 l 3.04,-2.99 2.62,7.2 v 24.71 c 2.44,1.94 5.13,3.82 8.09,5.62 v -30.33 z"
   id="path2726" />
							<path
   class="st1"
   d="m 330.55,388.42 h 2.78 v 20.47 l -2.78,2.74 z m 8.49,-7.9 4.29,4.28 v 25.71 l -4.45,4.38 4.25,13.56 v 30.33 c -2.97,-1.8 -5.66,-3.68 -8.09,-5.62 v -24.71 l -2.62,-7.2 -3.04,2.99 v 21.88 c -3.32,-3.58 -5.95,-7.22 -8.04,-10.75 v -54.85 h 17.7 m -10.05,34.84 5.91,-5.81 v -22.68 h -5.91 v 28.49 m 10.05,-36.4 h -17.71 l -1.56,1.56 v 54.85 l 0.22,0.79 c 2.31,3.9 5.08,7.61 8.24,11.02 l 2.71,-1.06 V 424.9 l 0.84,-0.83 1.7,4.66 v 24.43 l 0.59,1.22 c 2.55,2.03 5.33,3.96 8.26,5.73 l 2.37,-1.34 v -30.33 l -0.07,-0.47 -3.96,-12.65 3.77,-3.71 0.47,-1.11 v -25.71 l -0.46,-1.1 -4.29,-4.28 z"
   id="path2728" />
						</g>
						<g
   id="g2736">
							<path
   class="st15"
   d="m 334.6,408.99 -5.91,5.81 v -28.5 h 5.91 z m 3.89,5.35 4.45,-4.38 v -25.71 l -4.29,-4.28 h -17.71 v 54.85 c 2.09,3.53 4.72,7.17 8.04,10.75 v -21.88 l 3.04,-2.99 2.62,7.2 v 24.71 c 2.44,1.94 5.13,3.82 8.09,5.62 V 427.9 Z"
   id="path2732" />
							<path
   class="st1"
   d="m 330.35,387.97 h 2.59 v 20.33 l -2.59,2.55 z m 8.3,-8 4.29,4.28 v 25.71 l -4.45,4.38 4.25,13.56 v 30.33 c -2.97,-1.8 -5.66,-3.68 -8.09,-5.62 V 427.9 l -2.62,-7.2 -3.04,2.99 v 21.88 c -3.32,-3.58 -5.95,-7.22 -8.04,-10.75 v -54.85 h 17.7 m -9.96,34.83 5.91,-5.81 v -22.68 h -5.91 v 28.49 m 9.96,-36.49 h -17.71 l -1.66,1.66 v 54.85 l 0.23,0.84 c 2.31,3.91 5.09,7.62 8.26,11.04 l 2.88,-1.13 v -21.19 l 0.7,-0.69 1.64,4.5 v 24.42 l 0.63,1.3 c 2.55,2.03 5.34,3.96 8.27,5.74 l 2.52,-1.42 V 427.9 l -0.08,-0.5 -3.95,-12.6 3.72,-3.67 0.5,-1.18 v -25.71 l -0.49,-1.17 -4.29,-4.28 z"
   id="path2734" />
						</g>
						<g
   id="g2742">
							<path
   class="st16"
   d="m 334.31,408.43 -5.91,5.81 v -28.5 h 5.91 z m 3.79,5.35 4.45,-4.38 v -25.7 l -4.29,-4.28 h -17.71 v 54.85 c 2.09,3.53 4.72,7.17 8.04,10.75 v -21.88 l 3.04,-2.99 2.62,7.2 v 24.71 c 2.44,1.94 5.13,3.82 8.09,5.62 v -30.33 z"
   id="path2738" />
							<path
   class="st1"
   d="m 330.16,387.51 h 2.39 v 20.19 l -2.39,2.36 z m 8.1,-8.09 4.29,4.29 v 25.71 l -4.45,4.38 4.25,13.56 v 30.33 c -2.97,-1.8 -5.66,-3.68 -8.09,-5.62 v -24.71 l -2.62,-7.2 -3.04,2.99 v 21.88 c -3.32,-3.58 -5.96,-7.22 -8.04,-10.75 v -54.85 h 17.7 m -9.86,34.82 5.91,-5.81 v -22.68 h -5.91 v 28.49 m 9.86,-36.59 h -17.71 l -1.76,1.76 v 54.85 l 0.24,0.89 c 2.31,3.91 5.1,7.63 8.27,11.05 l 3.04,-1.19 v -21.15 l 0.57,-0.56 1.58,4.34 v 24.4 l 0.66,1.37 c 2.56,2.04 5.34,3.97 8.28,5.75 l 2.67,-1.5 v -30.33 l -0.08,-0.53 -3.93,-12.54 3.68,-3.62 0.52,-1.25 v -25.7 l -0.51,-1.24 -4.29,-4.28 z"
   id="path2740" />
						</g>
						<g
   id="g2748">
							<path
   class="st17"
   d="m 334.02,407.88 -5.91,5.81 v -28.5 h 5.91 z m 3.69,5.35 4.45,-4.38 v -25.71 l -4.29,-4.28 h -17.71 v 54.85 c 2.09,3.53 4.72,7.17 8.04,10.75 v -21.88 l 3.04,-2.99 2.62,7.2 v 24.71 c 2.44,1.94 5.13,3.82 8.09,5.62 v -30.33 z"
   id="path2744" />
							<path
   class="st1"
   d="m 329.96,387.05 h 2.2 v 20.05 l -2.2,2.16 z m 7.91,-8.19 4.29,4.29 v 25.71 l -4.45,4.38 4.25,13.56 v 30.33 c -2.97,-1.8 -5.66,-3.68 -8.09,-5.62 V 426.8 l -2.62,-7.2 -3.04,2.99 v 21.88 c -3.32,-3.58 -5.96,-7.22 -8.04,-10.75 v -54.85 h 17.7 m -9.76,34.82 5.91,-5.81 V 385.2 h -5.91 v 28.49 m 9.76,-36.68 h -17.71 l -1.85,1.85 v 54.85 l 0.26,0.94 c 2.32,3.92 5.1,7.64 8.28,11.07 l 3.21,-1.26 v -21.1 l 0.43,-0.42 1.52,4.18 v 24.38 l 0.7,1.45 c 2.56,2.04 5.35,3.97 8.29,5.75 l 2.81,-1.59 v -30.33 l -0.08,-0.55 -3.91,-12.48 3.64,-3.58 0.55,-1.32 v -25.71 l -0.54,-1.31 -4.29,-4.28 z"
   id="path2746" />
						</g>
						<g
   id="g2754">
							<path
   class="st2"
   d="m 333.72,407.33 -5.91,5.81 v -28.5 h 5.91 z m 3.6,5.34 4.45,-4.38 v -25.71 l -4.29,-4.28 h -17.71 v 54.85 c 2.09,3.53 4.72,7.17 8.04,10.75 v -21.88 l 3.04,-2.99 2.62,7.2 v 24.71 c 2.44,1.94 5.13,3.82 8.09,5.62 v -30.33 z"
   id="path2750"
   style="fill:#ffc747;fill-opacity:1" />
							<path
   class="st1"
   d="m 329.77,386.59 h 1 v 19.91 l -1,1.97 z m 7.71,-8.28 4.29,4.28 v 25.71 l -4.45,4.38 4.25,13.56 v 30.33 c -2.97,-1.8 -5.66,-3.68 -8.09,-5.62 v -24.71 l -2.62,-7.2 -3.04,2.99 v 21.88 c -3.32,-3.58 -5.96,-7.22 -8.04,-10.75 v -54.85 h 17.7 m -9.66,34.83 5.91,-5.81 v -22.68 h -5.91 v 28.49 m 9.66,-36.79 h -17.71 l -1.95,1.95 v 54.85 l 0.27,0.99 c 2.32,3.92 5.11,7.65 8.29,11.09 l 3.38,-1.33 v -21.06 l 0.29,-0.29 1.47,4.03 v 24.36 l 0.74,1.53 c 2.56,2.04 5.36,3.98 8.3,5.76 l 2.96,-1.67 v -30.33 l -0.09,-0.58 -3.89,-12.43 3.6,-3.54 0.58,-1.39 v -25.71 l -0.57,-1.38 -4.29,-4.29 z"
   id="path2752" />
						</g>
					</g>
					<g
   id="g2824"
   style="display:inline">
						<g
   id="g2762">
							<path
   class="st1"
   d="m 383.34,384.64 v 29.02 l -5.91,5.81 v -34.83 h -8.04 v 77.23 c 2.96,-1.9 5.64,-3.88 8.04,-5.91 v -27.6 l 5.91,-5.81 v 27.77 c 3.32,-3.59 5.96,-7.23 8.04,-10.78 v -54.9 z"
   id="path2758" />
							<path
   class="st1"
   d="m 391.38,384.64 v 54.9 c -2.08,3.54 -4.72,7.19 -8.04,10.78 v -27.77 l -5.91,5.81 v 27.6 c -2.41,2.04 -5.08,4.02 -8.04,5.91 v -77.23 h 8.04 v 34.83 l 5.91,-5.81 v -29.02 h 8.04 m 0,-0.97 h -8.04 l -0.98,0.98 v 28.61 l -3.95,3.89 v -32.5 l -0.98,-0.98 h -8.04 l -0.98,0.98 v 77.23 l 1.5,0.82 c 2.91,-1.86 5.65,-3.87 8.15,-5.99 l 0.35,-0.74 v -27.19 l 3.95,-3.89 v 25.44 l 1.69,0.66 c 3.14,-3.39 5.89,-7.07 8.17,-10.94 l 0.13,-0.49 v -54.9 z"
   id="path2760" />
						</g>
						<g
   id="g2768">
							<path
   class="st9"
   d="m 383.73,384.01 v 29.02 l -5.91,5.81 v -34.83 h -8.04 v 77.23 c 2.96,-1.9 5.64,-3.88 8.04,-5.91 v -27.6 l 5.91,-5.81 v 27.77 c 3.32,-3.59 5.96,-7.23 8.04,-10.78 v -54.9 z"
   id="path2764" />
							<path
   class="st1"
   d="m 391.77,384.01 v 54.9 c -2.08,3.54 -4.72,7.19 -8.04,10.78 v -27.77 l -5.91,5.81 v 27.6 c -2.41,2.04 -5.08,4.02 -8.04,5.91 v -77.23 h 8.04 v 34.83 l 5.91,-5.81 v -29.02 h 8.04 m 0,-1.07 h -8.04 l -1.07,1.07 v 28.57 l -3.76,3.7 v -32.27 l -1.07,-1.07 h -8.04 l -1.07,1.07 v 77.23 l 1.65,0.9 c 2.91,-1.86 5.66,-3.88 8.16,-6 l 0.38,-0.82 v -27.15 l 3.76,-3.7 v 25.21 l 1.86,0.73 c 3.15,-3.39 5.9,-7.08 8.18,-10.96 l 0.15,-0.54 v -54.9 z"
   id="path2766" />
						</g>
						<g
   id="g2774">
							<path
   class="st10"
   d="m 384.12,383.38 v 29.02 l -5.91,5.81 v -34.83 h -8.04 v 77.23 c 2.96,-1.9 5.64,-3.88 8.04,-5.91 v -27.6 l 5.91,-5.81 v 27.77 c 3.32,-3.59 5.96,-7.23 8.04,-10.78 v -54.9 z"
   id="path2770" />
							<path
   class="st1"
   d="m 392.16,383.38 v 54.9 c -2.08,3.54 -4.72,7.19 -8.04,10.78 v -27.77 l -5.91,5.81 v 27.6 c -2.41,2.04 -5.08,4.02 -8.04,5.91 v -77.23 h 8.04 v 34.83 l 5.91,-5.81 v -29.02 h 8.04 m 0,-1.17 h -8.04 l -1.17,1.17 v 28.53 l -3.56,3.51 v -32.04 l -1.17,-1.17 h -8.04 l -1.17,1.17 v 77.23 l 1.8,0.99 c 2.91,-1.86 5.66,-3.88 8.17,-6.01 l 0.41,-0.89 v -27.1 l 3.56,-3.51 v 24.97 l 2.03,0.8 c 3.15,-3.4 5.91,-7.09 8.19,-10.98 l 0.16,-0.59 v -54.9 z"
   id="path2772" />
						</g>
						<g
   id="g2780">
							<path
   class="st11"
   d="m 384.51,382.74 v 29.02 l -5.91,5.81 v -34.83 h -8.04 v 77.23 c 2.96,-1.9 5.64,-3.88 8.04,-5.91 v -27.6 l 5.91,-5.81 v 27.77 c 3.32,-3.59 5.96,-7.23 8.04,-10.78 v -54.9 z"
   id="path2776" />
							<path
   class="st1"
   d="m 392.55,382.74 v 54.9 c -2.08,3.54 -4.72,7.19 -8.04,10.78 v -27.77 l -5.91,5.81 v 27.6 c -2.41,2.04 -5.08,4.02 -8.04,5.91 v -77.23 h 8.04 v 34.83 l 5.91,-5.81 v -29.02 h 8.04 m 0,-1.27 h -8.04 l -1.27,1.27 v 28.49 l -3.37,3.32 v -31.8 l -1.27,-1.27 h -8.04 l -1.27,1.27 v 77.23 l 1.95,1.07 c 2.92,-1.87 5.67,-3.89 8.18,-6.01 l 0.45,-0.97 v -27.06 l 3.37,-3.31 v 24.74 l 2.2,0.86 c 3.16,-3.4 5.92,-7.1 8.21,-11 l 0.18,-0.64 v -54.9 z"
   id="path2778" />
						</g>
						<g
   id="g2786">
							<path
   class="st12"
   d="m 384.9,382.11 v 29.02 l -5.91,5.81 v -34.83 h -8.04 v 77.23 c 2.96,-1.9 5.64,-3.88 8.04,-5.91 v -27.6 l 5.91,-5.81 v 27.77 c 3.32,-3.59 5.96,-7.23 8.04,-10.78 v -54.9 z"
   id="path2782" />
							<path
   class="st1"
   d="m 392.95,382.11 v 54.9 c -2.08,3.54 -4.72,7.19 -8.04,10.78 v -27.77 l -5.91,5.81 v 27.6 c -2.41,2.04 -5.08,4.02 -8.04,5.91 V 382.11 H 379 v 34.83 l 5.91,-5.81 v -29.02 h 8.04 m 0,-1.37 h -8.04 l -1.37,1.37 v 28.45 l -3.17,3.12 V 382.11 L 379,380.74 h -8.04 l -1.37,1.37 v 77.23 l 2.1,1.15 c 2.92,-1.87 5.68,-3.89 8.19,-6.02 l 0.48,-1.04 V 426.4 l 3.17,-3.12 v 24.51 l 2.37,0.93 c 3.16,-3.41 5.93,-7.11 8.22,-11.01 l 0.19,-0.69 v -54.9 z"
   id="path2784" />
						</g>
						<g
   id="g2792">
							<path
   class="st13"
   d="m 385.29,381.48 v 29.02 l -5.91,5.81 v -34.83 h -8.04 v 77.23 c 2.96,-1.9 5.64,-3.88 8.04,-5.91 v -27.6 l 5.91,-5.81 v 27.77 c 3.32,-3.59 5.96,-7.23 8.04,-10.78 v -54.9 z"
   id="path2788" />
							<path
   class="st1"
   d="m 393.34,381.48 v 54.9 c -2.08,3.54 -4.72,7.19 -8.04,10.78 v -27.77 l -5.91,5.81 v 27.6 c -2.41,2.04 -5.08,4.02 -8.04,5.91 v -77.23 h 8.04 v 34.83 l 5.91,-5.81 v -29.02 h 8.04 m 0,-1.47 h -8.04 l -1.46,1.46 v 28.41 l -2.98,2.93 v -31.34 l -1.46,-1.46 h -8.04 l -1.46,1.46 v 77.23 l 2.25,1.23 c 2.92,-1.87 5.68,-3.9 8.2,-6.03 l 0.52,-1.12 V 425.8 l 2.98,-2.93 v 24.28 l 2.54,1 c 3.16,-3.41 5.93,-7.12 8.23,-11.03 l 0.2,-0.74 v -54.9 z"
   id="path2790" />
						</g>
						<g
   id="g2798">
							<path
   class="st14"
   d="m 385.68,380.84 v 29.02 l -5.91,5.81 v -34.83 h -8.04 v 77.23 c 2.96,-1.9 5.64,-3.88 8.04,-5.91 v -27.6 l 5.91,-5.81 v 27.77 c 3.32,-3.59 5.96,-7.23 8.04,-10.78 v -54.9 z"
   id="path2794" />
							<path
   class="st1"
   d="m 393.73,380.84 v 54.9 c -2.08,3.54 -4.72,7.19 -8.04,10.78 v -27.77 l -5.91,5.81 v 27.6 c -2.41,2.04 -5.08,4.02 -8.04,5.91 v -77.23 h 8.04 v 34.83 l 5.91,-5.81 v -29.02 h 8.04 m 0,-1.56 h -8.04 l -1.56,1.56 v 28.37 l -2.78,2.74 v -31.1 l -1.56,-1.56 h -8.04 l -1.56,1.56 v 77.23 l 2.4,1.32 c 2.93,-1.87 5.69,-3.9 8.21,-6.04 l 0.55,-1.19 v -26.94 l 2.78,-2.74 v 24.04 l 2.71,1.06 c 3.17,-3.42 5.94,-7.14 8.24,-11.05 l 0.22,-0.79 v -54.9 z"
   id="path2796" />
						</g>
						<g
   id="g2804">
							<path
   class="st15"
   d="m 386.07,380.21 v 29.02 l -5.91,5.81 v -34.83 h -8.04 v 77.23 c 2.96,-1.9 5.64,-3.88 8.04,-5.91 v -27.6 l 5.91,-5.81 v 27.77 c 3.32,-3.59 5.96,-7.23 8.04,-10.78 v -54.9 z"
   id="path2800" />
							<path
   class="st1"
   d="m 394.12,380.21 v 54.9 c -2.08,3.54 -4.72,7.19 -8.04,10.78 v -27.77 l -5.91,5.81 v 27.6 c -2.41,2.04 -5.08,4.02 -8.04,5.91 v -77.23 h 8.04 v 34.83 l 5.91,-5.81 v -29.02 h 8.04 m 0,-1.66 h -8.04 l -1.66,1.66 v 28.32 l -2.59,2.55 v -30.87 l -1.66,-1.66 h -8.04 l -1.66,1.66 v 77.23 l 2.55,1.4 c 2.93,-1.88 5.7,-3.91 8.22,-6.04 l 0.59,-1.27 v -26.9 l 2.59,-2.55 v 23.81 l 2.88,1.13 c 3.17,-3.42 5.95,-7.15 8.26,-11.06 l 0.23,-0.84 v -54.9 z"
   id="path2802" />
						</g>
						<g
   id="g2810">
							<path
   class="st16"
   d="m 386.46,379.57 v 29.02 l -5.91,5.81 v -34.83 h -8.04 v 77.23 c 2.96,-1.9 5.64,-3.88 8.04,-5.91 v -27.6 l 5.91,-5.81 v 27.77 c 3.32,-3.59 5.96,-7.23 8.04,-10.78 v -54.9 z"
   id="path2806" />
							<path
   class="st1"
   d="m 394.51,379.57 v 54.9 c -2.08,3.54 -4.72,7.19 -8.04,10.78 v -27.77 l -5.91,5.81 v 27.6 c -2.41,2.04 -5.08,4.02 -8.04,5.91 v -77.23 h 8.04 v 34.83 l 5.91,-5.81 v -29.02 h 8.04 m 0,-1.75 h -8.04 l -1.76,1.76 v 28.28 l -2.39,2.36 v -30.64 l -1.76,-1.76 h -8.04 l -1.76,1.76 v 77.23 l 2.7,1.48 c 2.94,-1.88 5.71,-3.91 8.23,-6.05 l 0.62,-1.34 v -26.86 l 2.39,-2.35 v 23.58 l 3.04,1.19 c 3.18,-3.43 5.96,-7.16 8.27,-11.08 l 0.24,-0.89 v -54.9 z"
   id="path2808" />
						</g>
						<g
   id="g2816">
							<path
   class="st17"
   d="m 386.85,378.94 v 29.02 l -5.91,5.81 v -34.83 h -8.04 v 77.23 c 2.96,-1.9 5.64,-3.88 8.04,-5.91 v -27.6 l 5.91,-5.81 v 27.77 c 3.32,-3.59 5.96,-7.23 8.04,-10.78 v -54.9 z"
   id="path2812" />
							<path
   class="st1"
   d="m 394.9,378.94 v 54.9 c -2.08,3.54 -4.72,7.19 -8.04,10.78 v -27.77 l -5.91,5.81 v 27.6 c -2.41,2.04 -5.08,4.02 -8.04,5.91 v -77.23 h 8.04 v 34.83 l 5.91,-5.81 v -29.02 h 8.04 m 0,-1.85 h -8.04 l -1.85,1.85 v 28.24 l -2.2,2.16 v -30.41 l -1.85,-1.85 h -8.04 l -1.85,1.85 v 77.23 l 2.85,1.56 c 2.94,-1.88 5.71,-3.92 8.24,-6.06 l 0.66,-1.42 v -26.82 l 2.2,-2.16 v 23.34 l 3.21,1.26 c 3.18,-3.43 5.97,-7.17 8.28,-11.1 l 0.26,-0.94 v -54.9 z"
   id="path2814" />
						</g>
						<g
   id="g2822">
							<path
   class="st2"
   d="m 387.24,378.31 v 29.02 l -5.91,5.81 v -34.83 h -8.04 v 77.23 c 2.96,-1.9 5.64,-3.88 8.04,-5.91 v -27.6 l 5.91,-5.81 v 27.77 c 3.32,-3.59 5.96,-7.23 8.04,-10.78 v -54.9 z"
   id="path2818"
   style="fill:#ffc747;fill-opacity:1" />
							<path
   class="st1"
   d="m 395.29,378.31 v 54.9 c -2.08,3.54 -4.72,7.19 -8.04,10.78 v -27.77 l -5.91,5.81 v 27.6 c -2.41,2.04 -5.08,4.02 -8.04,5.91 v -77.23 h 8.04 v 34.83 l 5.91,-5.81 v -29.02 h 8.04 m 0,-1.96 h -8.04 l -1.95,1.95 v 28.2 l -2,1.97 V 378.3 l -1.95,-1.95 h -8.04 l -1.95,1.95 v 77.23 l 3,1.64 c 2.94,-1.88 5.72,-3.92 8.25,-6.07 l 0.69,-1.49 v -26.78 l 2,-1.97 v 23.11 l 3.38,1.33 c 3.19,-3.44 5.98,-7.18 8.29,-11.11 l 0.27,-0.99 v -54.9 z"
   id="path2820" />
						</g>
					</g>
				</g>
			</g>


		</g>

	</g>
</switch>
</svg>
