<svg viewBox="0 0 48 56" fill="none" xmlns="http://www.w3.org/2000/svg">
    <rect x="0.5" y="0.5" width="47" height="55" rx="3.5" fill="#C8DDE0" stroke="white"/>
    <path d="M23.181 4.00108C15.7818 4.24556 5.3931 7.33167 8.51583 22.4364V28.8182C10.0795 32.3636 11.2132 35.0227 14.4578 39.9273C15.1875 41.0303 18.836 43 23.8398 43C28.8435 43 31.8665 41.0303 32.5962 39.9273C36.134 34.5795 36.9745 32.3636 38.5381 28.8182V22.4364C41.6655 7.30909 30.5824 4.23744 23.181 4.00108Z" fill="#734B3B"/>
    <path fill-rule="evenodd" clip-rule="evenodd" d="M18.1529 30L18.153 30.0002V30H29.8471V30.0001L29.8472 30L42.0001 46.56H30.3058H17.6943H6L18.1529 30ZM19.2468 36.992L22.4989 32.9967V32.9966H22.499H25.6282H25.6283V32.9966L28.8804 36.992H25.7511H22.376H19.2468Z" fill="#541B1B"/>
    <path d="M24 37.36L36.1244 49.09H11.8756L24 37.36Z" fill="#541B1B"/>
    <path d="M24.4 53L19.5503 45.41L29.2497 45.41L24.4 53Z" fill="#541B1B"/>
</svg>
