<svg viewBox="0 0 48 56" fill="none" xmlns="http://www.w3.org/2000/svg">
    <rect x="0.5" y="0.5" width="47" height="55" rx="3.5" fill="#C8DDE0" stroke="white"/>
    <path d="M43 45.295C40.4215 42.4488 34.5506 35.2385 31.6944 29.1667V44.8206L43 45.295Z" fill="#FFF173"/>
    <path d="M6 45.295C8.57846 42.4488 14.4494 35.2385 17.3056 29.1667V44.8206L6 45.295Z" fill="#FFF173"/>
    <path fill-rule="evenodd" clip-rule="evenodd" d="M24.2117 6.39864C18.6327 6.63134 11.094 9.2156 11.0009 20.7545C9.68991 18.3049 7.7159 15.3357 6 14.9359C7.02128 17.1714 9.11489 22.3621 9.31915 25.241C9.39639 26.4286 9.94328 28.694 11.4942 29.1027V33.5653C11.9658 34.9151 12.5358 35.6077 13.1472 36.3505C14.2937 37.7436 15.5857 39.3134 16.647 45.7261C17.2798 46.9336 20.4438 49.0898 24.7829 49.0898C29.1221 49.0898 31.7436 46.9336 32.3764 45.7261C33.4377 39.3134 34.7297 37.7436 35.8762 36.3505C36.4876 35.6077 37.0576 34.9151 37.5292 33.5653V29.0964C39.0622 28.6711 39.604 26.4226 39.6809 25.241C39.8851 22.3621 41.9787 17.1714 43 14.9359C41.2827 15.336 39.307 18.3096 37.996 20.7602C37.7927 9.1969 29.7944 6.62369 24.2117 6.39864Z" fill="#8B8575"/>
    <path fill-rule="evenodd" clip-rule="evenodd" d="M24.5 16.1218C26.5556 12.4152 32.2084 10.5619 34.7778 10.0986C31.4375 7.13327 26.5342 6.2375 24.5 6.16028V16.1218ZM24.4999 16.1218C22.4444 12.4152 16.7916 10.5619 14.2222 10.0986C17.5624 7.13329 22.4658 6.23752 24.4999 6.1603V16.1218Z" fill="#FFF173"/>
</svg>
