<svg viewBox="0 0 48 56" fill="none" xmlns="http://www.w3.org/2000/svg">
    <rect x="0.5" y="0.5" width="47" height="55" rx="3.5" fill="#C8DDE0" stroke="white"/>
    <path d="M23.637 9.00113C15.5568 9.25816 4.21229 12.5025 7.62234 28.3818V35.0909C9.32989 38.8182 12.062 37.3273 14.111 46.7697C14.9079 47.9293 18.8922 50 24.3563 50C29.8204 50 33.1216 47.9293 33.9184 46.7697C35.9675 37.3273 38.6996 38.8182 40.4071 35.0909V28.3818C43.8223 12.4788 31.7193 9.24962 23.637 9.00113Z" fill="#9E6E5F"/>
    <path d="M19.4 7.09306C14.3704 6.81399 4.93041 8.51631 7.40648 17.5582C14.3704 17.5582 28.9947 18.6465 31.7803 23C31.9093 21.3256 33.6373 17.893 39.518 17.5582C39.1311 17.1396 39.2859 14.4605 43 7.09306C41.8393 8.06979 38.899 10.0233 36.4229 10.0233L38.3574 5C37.5836 6.39535 32.7088 8.76745 19.4 7.09306Z" fill="#553647"/>
</svg>
