<svg viewBox="0 0 48 56" fill="none" xmlns="http://www.w3.org/2000/svg">
    <rect x="0.5" y="0.5" width="47" height="55" rx="3.5" fill="#C8DDE0" stroke="white"/>
    <path d="M23.637 8.60896C15.5568 8.87471 4.21229 12.2292 7.62234 28.6477V35.5846C9.32989 39.4384 10.4 39.9411 14.111 47.66C14.9079 48.8589 18.8922 50.9999 24.3563 50.9999C29.8204 50.9999 33.775 49.6747 34.625 47.66C37.8816 39.9411 38.6996 39.4384 40.4071 35.5846V28.6477C43.8223 12.2047 31.7193 8.86588 23.637 8.60896Z" fill="#737964"/>
    <path d="M16.9286 35.3334C16.3584 36.5551 15.7088 39.9822 17.6724 43.9173L20.35 44.1102C19.5814 42.9207 17.8211 39.5 16.9286 35.3334Z" fill="#E9E6E6"/>
    <path fill-rule="evenodd" clip-rule="evenodd" d="M22.8576 16.9019L18.9 4H21.185L26.8151 4H29.1001L25.1426 16.9019L25.1425 16.9015V16.902H22.8576V16.9019Z" fill="#414C43"/>
    <path d="M31.6714 35.3334C32.2416 36.5551 32.8912 39.9822 30.9276 43.9173L28.25 44.1102C29.0186 42.9207 30.7788 39.5 31.6714 35.3334Z" fill="#E9E6E6"/>
</svg>
